<svg width="138" height="116" viewBox="0 0 138 116" fill="none" xmlns="http://www.w3.org/2000/svg">
<path d="M42.5 39.9928C30.928 26.7469 26 0.00917769 26 0.00917769C26 0.00917769 55.9644 -0.0114721 76.5 0.00917769C92.9203 0.0256893 113.732 -0.155278 119.5 1.49277C130 4.49277 136.174 13.7429 137.5 24.4928C138.672 33.9966 135 43.4928 132 47.9928C129 52.4928 111.821 67.253 96 69.9928C85.8465 71.7511 81.0142 68.035 71.5 71.9928C66.9821 73.8722 64.4323 75.0805 60.5 77.9928C53.5886 83.1114 42.5 95.9928 42.5 95.9928C42.5 95.9928 58.0416 97.9928 68 97.9928C77.9584 97.9928 88 98.4928 93.5 95.9928C99 93.4928 103.269 90.6129 104.5 86.4928C106.046 81.3182 101.5 72.9928 101.5 72.9928L119.5 64.9928C119.5 64.9928 135 82.4928 123 99.4928C111 116.493 86 115.993 86 115.993H0C0 115.993 16.3434 95.5923 28.5 83.9928C46.291 67.017 65.5 52.6684 76.5 49.9928C87.5 47.3172 99.0261 54.3341 108.5 48.4928C114.652 44.6997 116.845 41.5565 117 35.4928C117.119 30.853 115.169 27.6118 112.5 24.4928C106.832 17.8697 90.5 17.9928 90.5 17.9928C90.5 17.9928 73.8859 17.3148 68 24.4928C65.057 28.0818 63.3132 30.8552 63.5 35.4928C63.7376 41.3913 72 47.9928 72 47.9928L58.5 54.9928C58.5 54.9928 47.6 45.8305 42.5 39.9928Z" fill="#FF0000"/>
</svg>
