<svg width="139" height="163" viewBox="0 0 139 163" fill="none" xmlns="http://www.w3.org/2000/svg">
<path d="M21.5043 153C8.9521 144.169 0.784486 136.346 1.00433 121C1.27051 102.42 36.5683 89.3875 36.5683 89.3875C36.5683 89.3875 17.0533 107.012 19.0043 121C20.6013 132.449 23.4984 135.422 33.0043 142C39.5043 146.498 65.0043 151 82.5043 150.5C100.004 150 129.004 148.5 129.004 148.5C129.004 148.5 93.0043 159.187 82.5043 160.5C72.0043 161.812 39.4374 165.617 21.5043 153Z" fill="currentColor"/>
<path d="M37.0043 89L36.5683 89.3875M36.5683 89.3875C36.5683 89.3875 1.27051 102.42 1.00433 121C0.784486 136.346 8.9521 144.169 21.5043 153C39.4374 165.617 72.0043 161.812 82.5043 160.5C93.0043 159.187 129.004 148.5 129.004 148.5C129.004 148.5 100.004 150 82.5043 150.5C65.0043 151 39.5043 146.498 33.0043 142C23.4984 135.422 20.6013 132.449 19.0043 121C17.0533 107.012 36.5683 89.3875 36.5683 89.3875Z" stroke="currentColor"/>
<path d="M95.5043 49.5001C92.6217 66.3641 60.0043 79.0001 60.0043 79.0001C60.0043 79.0001 136.004 78.5001 129.504 37.5001C123.004 -3.49984 71.5043 -0.500084 50.5043 3.49997C29.5043 7.50003 8.50433 27.0001 8.50433 27.0001C8.50433 27.0001 39.3982 15.2808 60.0043 15.5001C74.6742 15.6562 97.0043 22.0001 97.0043 22.0001C97.0043 22.0001 74.4864 23.7453 61.5043 27.0001C42.549 31.7525 30.5043 42.5001 30.5043 42.5001C30.5043 42.5001 99.7504 24.6595 95.5043 49.5001Z" fill="currentColor" stroke="currentColor"/>
<path d="M29.5043 122.5C28.0043 118.5 34.5043 102.5 41.0043 102C47.5043 101.5 51.5877 109.982 59.5043 112.5C75.6376 117.63 98.5043 115 102.504 107C106.504 99 98.0043 89.5 100.504 85C103.004 80.5 122.004 69.5 127.004 73.5C132.004 77.5 147.504 97 131.004 117C114.504 137 71.5772 147.209 46.5043 135.5C36.6665 130.906 31.0043 126.5 29.5043 122.5Z" fill="currentColor" stroke="currentColor"/>
</svg>
