<svg width="590" height="166" viewBox="0 0 590 166" fill="none" xmlns="http://www.w3.org/2000/svg">
<path d="M160.33 150V134.6H167.854C169.79 134.6 171.242 134.967 172.21 135.7C173.193 136.433 173.684 137.401 173.684 138.604C173.684 139.411 173.486 140.115 173.09 140.716C172.694 141.303 172.152 141.757 171.462 142.08C170.773 142.403 169.981 142.564 169.086 142.564L169.504 141.662C170.472 141.662 171.33 141.823 172.078 142.146C172.826 142.454 173.406 142.916 173.816 143.532C174.242 144.148 174.454 144.903 174.454 145.798C174.454 147.118 173.934 148.152 172.892 148.9C171.851 149.633 170.318 150 168.294 150H160.33ZM163.872 147.316H168.03C168.954 147.316 169.651 147.169 170.12 146.876C170.604 146.568 170.846 146.084 170.846 145.424C170.846 144.779 170.604 144.302 170.12 143.994C169.651 143.671 168.954 143.51 168.03 143.51H163.608V140.914H167.414C168.28 140.914 168.94 140.767 169.394 140.474C169.864 140.166 170.098 139.704 170.098 139.088C170.098 138.487 169.864 138.039 169.394 137.746C168.94 137.438 168.28 137.284 167.414 137.284H163.872V147.316ZM184.435 150.264C182.249 150.264 180.541 149.655 179.309 148.438C178.077 147.221 177.461 145.483 177.461 143.224V134.6H181.025V143.092C181.025 144.559 181.325 145.615 181.927 146.26C182.528 146.905 183.371 147.228 184.457 147.228C185.542 147.228 186.385 146.905 186.987 146.26C187.588 145.615 187.889 144.559 187.889 143.092V134.6H191.409V143.224C191.409 145.483 190.793 147.221 189.561 148.438C188.329 149.655 186.62 150.264 184.435 150.264ZM200.43 150.264C199.198 150.264 198.018 150.103 196.888 149.78C195.759 149.443 194.85 149.01 194.16 148.482L195.37 145.798C196.03 146.267 196.808 146.656 197.702 146.964C198.612 147.257 199.528 147.404 200.452 147.404C201.156 147.404 201.721 147.338 202.146 147.206C202.586 147.059 202.909 146.861 203.114 146.612C203.32 146.363 203.422 146.077 203.422 145.754C203.422 145.343 203.261 145.021 202.938 144.786C202.616 144.537 202.19 144.339 201.662 144.192C201.134 144.031 200.548 143.884 199.902 143.752C199.272 143.605 198.634 143.429 197.988 143.224C197.358 143.019 196.778 142.755 196.25 142.432C195.722 142.109 195.29 141.684 194.952 141.156C194.63 140.628 194.468 139.953 194.468 139.132C194.468 138.252 194.703 137.453 195.172 136.734C195.656 136.001 196.375 135.421 197.328 134.996C198.296 134.556 199.506 134.336 200.958 134.336C201.926 134.336 202.88 134.453 203.818 134.688C204.757 134.908 205.586 135.245 206.304 135.7L205.204 138.406C204.486 137.995 203.767 137.695 203.048 137.504C202.33 137.299 201.626 137.196 200.936 137.196C200.247 137.196 199.682 137.277 199.242 137.438C198.802 137.599 198.487 137.812 198.296 138.076C198.106 138.325 198.01 138.619 198.01 138.956C198.01 139.352 198.172 139.675 198.494 139.924C198.817 140.159 199.242 140.349 199.77 140.496C200.298 140.643 200.878 140.789 201.508 140.936C202.154 141.083 202.792 141.251 203.422 141.442C204.068 141.633 204.654 141.889 205.182 142.212C205.71 142.535 206.136 142.96 206.458 143.488C206.796 144.016 206.964 144.683 206.964 145.49C206.964 146.355 206.722 147.147 206.238 147.866C205.754 148.585 205.028 149.164 204.06 149.604C203.107 150.044 201.897 150.264 200.43 150.264ZM214.9 150.264C213.668 150.264 212.487 150.103 211.358 149.78C210.228 149.443 209.319 149.01 208.63 148.482L209.84 145.798C210.5 146.267 211.277 146.656 212.172 146.964C213.081 147.257 213.998 147.404 214.922 147.404C215.626 147.404 216.19 147.338 216.616 147.206C217.056 147.059 217.378 146.861 217.584 146.612C217.789 146.363 217.892 146.077 217.892 145.754C217.892 145.343 217.73 145.021 217.408 144.786C217.085 144.537 216.66 144.339 216.132 144.192C215.604 144.031 215.017 143.884 214.372 143.752C213.741 143.605 213.103 143.429 212.458 143.224C211.827 143.019 211.248 142.755 210.72 142.432C210.192 142.109 209.759 141.684 209.422 141.156C209.099 140.628 208.938 139.953 208.938 139.132C208.938 138.252 209.172 137.453 209.642 136.734C210.126 136.001 210.844 135.421 211.798 134.996C212.766 134.556 213.976 134.336 215.428 134.336C216.396 134.336 217.349 134.453 218.288 134.688C219.226 134.908 220.055 135.245 220.774 135.7L219.674 138.406C218.955 137.995 218.236 137.695 217.518 137.504C216.799 137.299 216.095 137.196 215.406 137.196C214.716 137.196 214.152 137.277 213.712 137.438C213.272 137.599 212.956 137.812 212.766 138.076C212.575 138.325 212.48 138.619 212.48 138.956C212.48 139.352 212.641 139.675 212.964 139.924C213.286 140.159 213.712 140.349 214.24 140.496C214.768 140.643 215.347 140.789 215.978 140.936C216.623 141.083 217.261 141.251 217.892 141.442C218.537 141.633 219.124 141.889 219.652 142.212C220.18 142.535 220.605 142.96 220.928 143.488C221.265 144.016 221.434 144.683 221.434 145.49C221.434 146.355 221.192 147.147 220.708 147.866C220.224 148.585 219.498 149.164 218.53 149.604C217.576 150.044 216.366 150.264 214.9 150.264ZM224.309 150V134.6H227.873V150H224.309ZM231.968 150V134.6H234.916L244.002 145.688H242.572V134.6H246.092V150H243.166L234.058 138.912H235.488V150H231.968ZM253.453 140.804H260.867V143.576H253.453V140.804ZM253.717 147.14H262.099V150H250.175V134.6H261.813V137.46H253.717V147.14ZM270.435 150.264C269.203 150.264 268.023 150.103 266.893 149.78C265.764 149.443 264.855 149.01 264.165 148.482L265.375 145.798C266.035 146.267 266.813 146.656 267.707 146.964C268.617 147.257 269.533 147.404 270.457 147.404C271.161 147.404 271.726 147.338 272.151 147.206C272.591 147.059 272.914 146.861 273.119 146.612C273.325 146.363 273.427 146.077 273.427 145.754C273.427 145.343 273.266 145.021 272.943 144.786C272.621 144.537 272.195 144.339 271.667 144.192C271.139 144.031 270.553 143.884 269.907 143.752C269.277 143.605 268.639 143.429 267.993 143.224C267.363 143.019 266.783 142.755 266.255 142.432C265.727 142.109 265.295 141.684 264.957 141.156C264.635 140.628 264.473 139.953 264.473 139.132C264.473 138.252 264.708 137.453 265.177 136.734C265.661 136.001 266.38 135.421 267.333 134.996C268.301 134.556 269.511 134.336 270.963 134.336C271.931 134.336 272.885 134.453 273.823 134.688C274.762 134.908 275.591 135.245 276.309 135.7L275.209 138.406C274.491 137.995 273.772 137.695 273.053 137.504C272.335 137.299 271.631 137.196 270.941 137.196C270.252 137.196 269.687 137.277 269.247 137.438C268.807 137.599 268.492 137.812 268.301 138.076C268.111 138.325 268.015 138.619 268.015 138.956C268.015 139.352 268.177 139.675 268.499 139.924C268.822 140.159 269.247 140.349 269.775 140.496C270.303 140.643 270.883 140.789 271.513 140.936C272.159 141.083 272.797 141.251 273.427 141.442C274.073 141.633 274.659 141.889 275.187 142.212C275.715 142.535 276.141 142.96 276.463 143.488C276.801 144.016 276.969 144.683 276.969 145.49C276.969 146.355 276.727 147.147 276.243 147.866C275.759 148.585 275.033 149.164 274.065 149.604C273.112 150.044 271.902 150.264 270.435 150.264ZM284.904 150.264C283.672 150.264 282.492 150.103 281.362 149.78C280.233 149.443 279.324 149.01 278.634 148.482L279.844 145.798C280.504 146.267 281.282 146.656 282.176 146.964C283.086 147.257 284.002 147.404 284.926 147.404C285.63 147.404 286.195 147.338 286.62 147.206C287.06 147.059 287.383 146.861 287.588 146.612C287.794 146.363 287.896 146.077 287.896 145.754C287.896 145.343 287.735 145.021 287.412 144.786C287.09 144.537 286.664 144.339 286.136 144.192C285.608 144.031 285.022 143.884 284.376 143.752C283.746 143.605 283.108 143.429 282.462 143.224C281.832 143.019 281.252 142.755 280.724 142.432C280.196 142.109 279.764 141.684 279.426 141.156C279.104 140.628 278.942 139.953 278.942 139.132C278.942 138.252 279.177 137.453 279.646 136.734C280.13 136.001 280.849 135.421 281.802 134.996C282.77 134.556 283.98 134.336 285.432 134.336C286.4 134.336 287.354 134.453 288.292 134.688C289.231 134.908 290.06 135.245 290.778 135.7L289.678 138.406C288.96 137.995 288.241 137.695 287.522 137.504C286.804 137.299 286.1 137.196 285.41 137.196C284.721 137.196 284.156 137.277 283.716 137.438C283.276 137.599 282.961 137.812 282.77 138.076C282.58 138.325 282.484 138.619 282.484 138.956C282.484 139.352 282.646 139.675 282.968 139.924C283.291 140.159 283.716 140.349 284.244 140.496C284.772 140.643 285.352 140.789 285.982 140.936C286.628 141.083 287.266 141.251 287.896 141.442C288.542 141.633 289.128 141.889 289.656 142.212C290.184 142.535 290.61 142.96 290.932 143.488C291.27 144.016 291.438 144.683 291.438 145.49C291.438 146.355 291.196 147.147 290.712 147.866C290.228 148.585 289.502 149.164 288.534 149.604C287.581 150.044 286.371 150.264 284.904 150.264ZM308.464 150.264C307.247 150.264 306.118 150.066 305.076 149.67C304.05 149.274 303.155 148.717 302.392 147.998C301.644 147.279 301.058 146.436 300.632 145.468C300.222 144.5 300.016 143.444 300.016 142.3C300.016 141.156 300.222 140.1 300.632 139.132C301.058 138.164 301.652 137.321 302.414 136.602C303.177 135.883 304.072 135.326 305.098 134.93C306.125 134.534 307.24 134.336 308.442 134.336C309.66 134.336 310.774 134.534 311.786 134.93C312.813 135.326 313.7 135.883 314.448 136.602C315.211 137.321 315.805 138.164 316.23 139.132C316.656 140.085 316.868 141.141 316.868 142.3C316.868 143.444 316.656 144.507 316.23 145.49C315.805 146.458 315.211 147.301 314.448 148.02C313.7 148.724 312.813 149.274 311.786 149.67C310.774 150.066 309.667 150.264 308.464 150.264ZM308.442 147.228C309.132 147.228 309.762 147.111 310.334 146.876C310.921 146.641 311.434 146.304 311.874 145.864C312.314 145.424 312.652 144.903 312.886 144.302C313.136 143.701 313.26 143.033 313.26 142.3C313.26 141.567 313.136 140.899 312.886 140.298C312.652 139.697 312.314 139.176 311.874 138.736C311.449 138.296 310.943 137.959 310.356 137.724C309.77 137.489 309.132 137.372 308.442 137.372C307.753 137.372 307.115 137.489 306.528 137.724C305.956 137.959 305.45 138.296 305.01 138.736C304.57 139.176 304.226 139.697 303.976 140.298C303.742 140.899 303.624 141.567 303.624 142.3C303.624 143.019 303.742 143.686 303.976 144.302C304.226 144.903 304.563 145.424 304.988 145.864C305.428 146.304 305.942 146.641 306.528 146.876C307.115 147.111 307.753 147.228 308.442 147.228ZM319.987 150V134.6H322.935L332.021 145.688H330.591V134.6H334.111V150H331.185L322.077 138.912H323.507V150H319.987ZM341.472 140.804H348.886V143.576H341.472V140.804ZM341.736 147.14H350.118V150H338.194V134.6H349.832V137.46H341.736V147.14ZM365.125 150.264C363.893 150.264 362.712 150.103 361.583 149.78C360.453 149.443 359.544 149.01 358.855 148.482L360.065 145.798C360.725 146.267 361.502 146.656 362.397 146.964C363.306 147.257 364.223 147.404 365.147 147.404C365.851 147.404 366.415 147.338 366.841 147.206C367.281 147.059 367.603 146.861 367.809 146.612C368.014 146.363 368.117 146.077 368.117 145.754C368.117 145.343 367.955 145.021 367.633 144.786C367.31 144.537 366.885 144.339 366.357 144.192C365.829 144.031 365.242 143.884 364.597 143.752C363.966 143.605 363.328 143.429 362.683 143.224C362.052 143.019 361.473 142.755 360.945 142.432C360.417 142.109 359.984 141.684 359.647 141.156C359.324 140.628 359.163 139.953 359.163 139.132C359.163 138.252 359.397 137.453 359.867 136.734C360.351 136.001 361.069 135.421 362.023 134.996C362.991 134.556 364.201 134.336 365.653 134.336C366.621 134.336 367.574 134.453 368.513 134.688C369.451 134.908 370.28 135.245 370.999 135.7L369.899 138.406C369.18 137.995 368.461 137.695 367.743 137.504C367.024 137.299 366.32 137.196 365.631 137.196C364.941 137.196 364.377 137.277 363.937 137.438C363.497 137.599 363.181 137.812 362.991 138.076C362.8 138.325 362.705 138.619 362.705 138.956C362.705 139.352 362.866 139.675 363.189 139.924C363.511 140.159 363.937 140.349 364.465 140.496C364.993 140.643 365.572 140.789 366.203 140.936C366.848 141.083 367.486 141.251 368.117 141.442C368.762 141.633 369.349 141.889 369.877 142.212C370.405 142.535 370.83 142.96 371.153 143.488C371.49 144.016 371.659 144.683 371.659 145.49C371.659 146.355 371.417 147.147 370.933 147.866C370.449 148.585 369.723 149.164 368.755 149.604C367.801 150.044 366.591 150.264 365.125 150.264ZM377.509 150V137.504H372.581V134.6H386.001V137.504H381.073V150H377.509ZM395.624 150.264C394.406 150.264 393.277 150.066 392.236 149.67C391.209 149.274 390.314 148.717 389.552 147.998C388.804 147.279 388.217 146.436 387.792 145.468C387.381 144.5 387.176 143.444 387.176 142.3C387.176 141.156 387.381 140.1 387.792 139.132C388.217 138.164 388.811 137.321 389.574 136.602C390.336 135.883 391.231 135.326 392.258 134.93C393.284 134.534 394.399 134.336 395.602 134.336C396.819 134.336 397.934 134.534 398.946 134.93C399.972 135.326 400.86 135.883 401.608 136.602C402.37 137.321 402.964 138.164 403.39 139.132C403.815 140.085 404.028 141.141 404.028 142.3C404.028 143.444 403.815 144.507 403.39 145.49C402.964 146.458 402.37 147.301 401.608 148.02C400.86 148.724 399.972 149.274 398.946 149.67C397.934 150.066 396.826 150.264 395.624 150.264ZM395.602 147.228C396.291 147.228 396.922 147.111 397.494 146.876C398.08 146.641 398.594 146.304 399.034 145.864C399.474 145.424 399.811 144.903 400.046 144.302C400.295 143.701 400.42 143.033 400.42 142.3C400.42 141.567 400.295 140.899 400.046 140.298C399.811 139.697 399.474 139.176 399.034 138.736C398.608 138.296 398.102 137.959 397.516 137.724C396.929 137.489 396.291 137.372 395.602 137.372C394.912 137.372 394.274 137.489 393.688 137.724C393.116 137.959 392.61 138.296 392.17 138.736C391.73 139.176 391.385 139.697 391.136 140.298C390.901 140.899 390.784 141.567 390.784 142.3C390.784 143.019 390.901 143.686 391.136 144.302C391.385 144.903 391.722 145.424 392.148 145.864C392.588 146.304 393.101 146.641 393.688 146.876C394.274 147.111 394.912 147.228 395.602 147.228ZM407.146 150V134.6H413.812C415.191 134.6 416.379 134.827 417.376 135.282C418.374 135.722 419.144 136.36 419.686 137.196C420.229 138.032 420.5 139.029 420.5 140.188C420.5 141.332 420.229 142.322 419.686 143.158C419.144 143.994 418.374 144.639 417.376 145.094C416.379 145.534 415.191 145.754 413.812 145.754H409.126L410.71 144.148V150H407.146ZM410.71 144.544L409.126 142.85H413.614C414.714 142.85 415.536 142.615 416.078 142.146C416.621 141.677 416.892 141.024 416.892 140.188C416.892 139.337 416.621 138.677 416.078 138.208C415.536 137.739 414.714 137.504 413.614 137.504H409.126L410.71 135.81V144.544ZM435.43 150.264C434.198 150.264 433.017 150.103 431.888 149.78C430.759 149.443 429.849 149.01 429.16 148.482L430.37 145.798C431.03 146.267 431.807 146.656 432.702 146.964C433.611 147.257 434.528 147.404 435.452 147.404C436.156 147.404 436.721 147.338 437.146 147.206C437.586 147.059 437.909 146.861 438.114 146.612C438.319 146.363 438.422 146.077 438.422 145.754C438.422 145.343 438.261 145.021 437.938 144.786C437.615 144.537 437.19 144.339 436.662 144.192C436.134 144.031 435.547 143.884 434.902 143.752C434.271 143.605 433.633 143.429 432.988 143.224C432.357 143.019 431.778 142.755 431.25 142.432C430.722 142.109 430.289 141.684 429.952 141.156C429.629 140.628 429.468 139.953 429.468 139.132C429.468 138.252 429.703 137.453 430.172 136.734C430.656 136.001 431.375 135.421 432.328 134.996C433.296 134.556 434.506 134.336 435.958 134.336C436.926 134.336 437.879 134.453 438.818 134.688C439.757 134.908 440.585 135.245 441.304 135.7L440.204 138.406C439.485 137.995 438.767 137.695 438.048 137.504C437.329 137.299 436.625 137.196 435.936 137.196C435.247 137.196 434.682 137.277 434.242 137.438C433.802 137.599 433.487 137.812 433.296 138.076C433.105 138.325 433.01 138.619 433.01 138.956C433.01 139.352 433.171 139.675 433.494 139.924C433.817 140.159 434.242 140.349 434.77 140.496C435.298 140.643 435.877 140.789 436.508 140.936C437.153 141.083 437.791 141.251 438.422 141.442C439.067 141.633 439.654 141.889 440.182 142.212C440.71 142.535 441.135 142.96 441.458 143.488C441.795 144.016 441.964 144.683 441.964 145.49C441.964 146.355 441.722 147.147 441.238 147.866C440.754 148.585 440.028 149.164 439.06 149.604C438.107 150.044 436.897 150.264 435.43 150.264ZM448.345 150V143.708L449.159 145.864L442.383 134.6H446.167L451.359 143.246H449.181L454.395 134.6H457.893L451.117 145.864L451.909 143.708V150H448.345ZM464.562 150.264C463.33 150.264 462.149 150.103 461.02 149.78C459.891 149.443 458.981 149.01 458.292 148.482L459.502 145.798C460.162 146.267 460.939 146.656 461.834 146.964C462.743 147.257 463.66 147.404 464.584 147.404C465.288 147.404 465.853 147.338 466.278 147.206C466.718 147.059 467.041 146.861 467.246 146.612C467.451 146.363 467.554 146.077 467.554 145.754C467.554 145.343 467.393 145.021 467.07 144.786C466.747 144.537 466.322 144.339 465.794 144.192C465.266 144.031 464.679 143.884 464.034 143.752C463.403 143.605 462.765 143.429 462.12 143.224C461.489 143.019 460.91 142.755 460.382 142.432C459.854 142.109 459.421 141.684 459.084 141.156C458.761 140.628 458.6 139.953 458.6 139.132C458.6 138.252 458.835 137.453 459.304 136.734C459.788 136.001 460.507 135.421 461.46 134.996C462.428 134.556 463.638 134.336 465.09 134.336C466.058 134.336 467.011 134.453 467.95 134.688C468.889 134.908 469.717 135.245 470.436 135.7L469.336 138.406C468.617 137.995 467.899 137.695 467.18 137.504C466.461 137.299 465.757 137.196 465.068 137.196C464.379 137.196 463.814 137.277 463.374 137.438C462.934 137.599 462.619 137.812 462.428 138.076C462.237 138.325 462.142 138.619 462.142 138.956C462.142 139.352 462.303 139.675 462.626 139.924C462.949 140.159 463.374 140.349 463.902 140.496C464.43 140.643 465.009 140.789 465.64 140.936C466.285 141.083 466.923 141.251 467.554 141.442C468.199 141.633 468.786 141.889 469.314 142.212C469.842 142.535 470.267 142.96 470.59 143.488C470.927 144.016 471.096 144.683 471.096 145.49C471.096 146.355 470.854 147.147 470.37 147.866C469.886 148.585 469.16 149.164 468.192 149.604C467.239 150.044 466.029 150.264 464.562 150.264ZM476.946 150V137.504H472.018V134.6H485.438V137.504H480.51V150H476.946ZM491.074 140.804H498.488V143.576H491.074V140.804ZM491.338 147.14H499.72V150H487.796V134.6H499.434V137.46H491.338V147.14ZM502.996 150V134.6H505.944L512.5 145.468H510.938L517.384 134.6H520.31L520.354 150H517.01L516.988 139.726H517.604L512.456 148.372H510.85L505.592 139.726H506.34V150H502.996Z" fill="currentColor"/>
<path d="M160.883 110V30.9H199.529C209.473 30.9 216.931 32.7833 221.903 36.55C226.951 40.3167 229.474 45.2887 229.474 51.466C229.474 55.6093 228.457 59.2253 226.423 62.314C224.389 65.3273 221.602 67.6627 218.061 69.32C214.521 70.9773 210.453 71.806 205.857 71.806L208.004 67.173C212.976 67.173 217.383 68.0017 221.225 69.659C225.067 71.241 228.043 73.614 230.152 76.778C232.337 79.942 233.429 83.8217 233.429 88.417C233.429 95.197 230.755 100.508 225.406 104.35C220.058 108.117 212.185 110 201.789 110H160.883ZM179.076 96.214H200.433C205.179 96.214 208.758 95.4607 211.168 93.954C213.654 92.372 214.897 89.886 214.897 86.496C214.897 83.1813 213.654 80.733 211.168 79.151C208.758 77.4937 205.179 76.665 200.433 76.665H177.72V63.331H197.269C201.714 63.331 205.104 62.5777 207.439 61.071C209.85 59.489 211.055 57.116 211.055 53.952C211.055 50.8633 209.85 48.5657 207.439 47.059C205.104 45.477 201.714 44.686 197.269 44.686H179.076V96.214ZM294.749 111.356C288.496 111.356 282.695 110.339 277.347 108.305C272.073 106.271 267.478 103.408 263.561 99.717C259.719 96.0257 256.705 91.694 254.521 86.722C252.411 81.75 251.357 76.326 251.357 70.45C251.357 64.574 252.411 59.15 254.521 54.178C256.705 49.206 259.756 44.8743 263.674 41.183C267.591 37.4917 272.186 34.629 277.46 32.595C282.733 30.561 288.458 29.544 294.636 29.544C300.888 29.544 306.614 30.561 311.812 32.595C317.085 34.629 321.643 37.4917 325.485 41.183C329.402 44.8743 332.453 49.206 334.638 54.178C336.822 59.0747 337.915 64.4987 337.915 70.45C337.915 76.326 336.822 81.7877 334.638 86.835C332.453 91.807 329.402 96.1387 325.485 99.83C321.643 103.446 317.085 106.271 311.812 108.305C306.614 110.339 300.926 111.356 294.749 111.356ZM294.636 95.762C298.176 95.762 301.416 95.1593 304.354 93.954C307.367 92.7487 310.004 91.016 312.264 88.756C314.524 86.496 316.256 83.8217 317.462 80.733C318.742 77.6443 319.383 74.2167 319.383 70.45C319.383 66.6833 318.742 63.2557 317.462 60.167C316.256 57.0783 314.524 54.404 312.264 52.144C310.079 49.884 307.48 48.1513 304.467 46.946C301.453 45.7407 298.176 45.138 294.636 45.138C291.095 45.138 287.818 45.7407 284.805 46.946C281.867 48.1513 279.268 49.884 277.008 52.144C274.748 54.404 272.977 57.0783 271.697 60.167C270.491 63.2557 269.889 66.6833 269.889 70.45C269.889 74.1413 270.491 77.569 271.697 80.733C272.977 83.8217 274.71 86.496 276.895 88.756C279.155 91.016 281.791 92.7487 284.805 93.954C287.818 95.1593 291.095 95.762 294.636 95.762ZM386.702 111.356C380.374 111.356 374.31 110.527 368.509 108.87C362.709 107.137 358.038 104.915 354.497 102.203L360.712 88.417C364.102 90.8277 368.095 92.824 372.69 94.406C377.361 95.9127 382.069 96.666 386.815 96.666C390.431 96.666 393.332 96.327 395.516 95.649C397.776 94.8957 399.434 93.8787 400.488 92.598C401.543 91.3173 402.07 89.8483 402.07 88.191C402.07 86.0817 401.242 84.4243 399.584 83.219C397.927 81.9383 395.742 80.9213 393.03 80.168C390.318 79.3393 387.305 78.586 383.99 77.908C380.751 77.1547 377.474 76.2507 374.159 75.196C370.92 74.1413 367.944 72.7853 365.232 71.128C362.52 69.4707 360.298 67.286 358.565 64.574C356.908 61.862 356.079 58.3967 356.079 54.178C356.079 49.658 357.285 45.5523 359.695 41.861C362.181 38.0943 365.873 35.1187 370.769 32.934C375.741 30.674 381.956 29.544 389.414 29.544C394.386 29.544 399.283 30.1467 404.104 31.352C408.926 32.482 413.182 34.2147 416.873 36.55L411.223 50.449C407.532 48.3397 403.841 46.7953 400.149 45.816C396.458 44.7613 392.842 44.234 389.301 44.234C385.761 44.234 382.86 44.6483 380.6 45.477C378.34 46.3057 376.721 47.398 375.741 48.754C374.762 50.0347 374.272 51.5413 374.272 53.274C374.272 55.308 375.101 56.9653 376.758 58.246C378.416 59.4513 380.6 60.4307 383.312 61.184C386.024 61.9373 389 62.6907 392.239 63.444C395.554 64.1973 398.831 65.0637 402.07 66.043C405.385 67.0223 408.398 68.3407 411.11 69.998C413.822 71.6553 416.007 73.84 417.664 76.552C419.397 79.264 420.263 82.6917 420.263 86.835C420.263 91.2797 419.02 95.3477 416.534 99.039C414.048 102.73 410.319 105.706 405.347 107.966C400.451 110.226 394.236 111.356 386.702 111.356ZM467.802 111.356C461.474 111.356 455.41 110.527 449.609 108.87C443.808 107.137 439.138 104.915 435.597 102.203L441.812 88.417C445.202 90.8277 449.195 92.824 453.79 94.406C458.461 95.9127 463.169 96.666 467.915 96.666C471.531 96.666 474.431 96.327 476.616 95.649C478.876 94.8957 480.533 93.8787 481.588 92.598C482.643 91.3173 483.17 89.8483 483.17 88.191C483.17 86.0817 482.341 84.4243 480.684 83.219C479.027 81.9383 476.842 80.9213 474.13 80.168C471.418 79.3393 468.405 78.586 465.09 77.908C461.851 77.1547 458.574 76.2507 455.259 75.196C452.02 74.1413 449.044 72.7853 446.332 71.128C443.62 69.4707 441.398 67.286 439.665 64.574C438.008 61.862 437.179 58.3967 437.179 54.178C437.179 49.658 438.384 45.5523 440.795 41.861C443.281 38.0943 446.972 35.1187 451.869 32.934C456.841 30.674 463.056 29.544 470.514 29.544C475.486 29.544 480.383 30.1467 485.204 31.352C490.025 32.482 494.282 34.2147 497.973 36.55L492.323 50.449C488.632 48.3397 484.94 46.7953 481.249 45.816C477.558 44.7613 473.942 44.234 470.401 44.234C466.86 44.234 463.96 44.6483 461.7 45.477C459.44 46.3057 457.82 47.398 456.841 48.754C455.862 50.0347 455.372 51.5413 455.372 53.274C455.372 55.308 456.201 56.9653 457.858 58.246C459.515 59.4513 461.7 60.4307 464.412 61.184C467.124 61.9373 470.1 62.6907 473.339 63.444C476.654 64.1973 479.931 65.0637 483.17 66.043C486.485 67.0223 489.498 68.3407 492.21 69.998C494.922 71.6553 497.107 73.84 498.764 76.552C500.497 79.264 501.363 82.6917 501.363 86.835C501.363 91.2797 500.12 95.3477 497.634 99.039C495.148 102.73 491.419 105.706 486.447 107.966C481.55 110.226 475.335 111.356 467.802 111.356Z" fill="currentColor"/>
<path d="M21.5043 156C8.9521 147.169 0.784486 139.346 1.00433 124C1.27051 105.42 36.5683 92.3875 36.5683 92.3875C36.5683 92.3875 17.0533 110.012 19.0043 124C20.6013 135.449 23.4984 138.422 33.0043 145C39.5043 149.498 65.0043 154 82.5043 153.5C100.004 153 129.004 151.5 129.004 151.5C129.004 151.5 93.0043 162.187 82.5043 163.5C72.0043 164.812 39.4374 168.617 21.5043 156Z" fill="currentColor"/>
<path d="M37.0043 92L36.5683 92.3875M36.5683 92.3875C36.5683 92.3875 1.27051 105.42 1.00433 124C0.784486 139.346 8.9521 147.169 21.5043 156C39.4374 168.617 72.0043 164.812 82.5043 163.5C93.0043 162.187 129.004 151.5 129.004 151.5C129.004 151.5 100.004 153 82.5043 153.5C65.0043 154 39.5043 149.498 33.0043 145C23.4984 138.422 20.6013 135.449 19.0043 124C17.0533 110.012 36.5683 92.3875 36.5683 92.3875Z" stroke="currentColor"/>
<path d="M95.5043 52.5001C92.6217 69.3641 60.0043 82.0001 60.0043 82.0001C60.0043 82.0001 136.004 81.5001 129.504 40.5001C123.004 -0.49984 71.5043 2.49992 50.5043 6.49997C29.5043 10.5 8.50433 30.0001 8.50433 30.0001C8.50433 30.0001 39.3982 18.2808 60.0043 18.5001C74.6742 18.6562 97.0043 25.0001 97.0043 25.0001C97.0043 25.0001 74.4864 26.7453 61.5043 30.0001C42.549 34.7525 30.5043 45.5001 30.5043 45.5001C30.5043 45.5001 99.7504 27.6595 95.5043 52.5001Z" fill="currentColor" stroke="currentColor"/>
<path d="M29.5043 125.5C28.0043 121.5 34.5043 105.5 41.0043 105C47.5043 104.5 51.5877 112.982 59.5043 115.5C75.6376 120.63 98.5043 118 102.504 110C106.504 102 98.0043 92.5 100.504 88C103.004 83.5 122.004 72.5 127.004 76.5C132.004 80.5 147.504 100 131.004 120C114.504 140 71.5772 150.209 46.5043 138.5C36.6665 133.906 31.0043 129.5 29.5043 125.5Z" fill="currentColor" stroke="currentColor"/>
</svg>
