<svg width="511" height="129" viewBox="0 0 511 129" fill="none" xmlns="http://www.w3.org/2000/svg">
<path d="M154.47 88V25H185.25C193.17 25 199.11 26.5 203.07 29.5C207.09 32.5 209.1 36.46 209.1 41.38C209.1 44.68 208.29 47.56 206.67 50.02C205.05 52.42 202.83 54.28 200.01 55.6C197.19 56.92 193.95 57.58 190.29 57.58L192 53.89C195.96 53.89 199.47 54.55 202.53 55.87C205.59 57.13 207.96 59.02 209.64 61.54C211.38 64.06 212.25 67.15 212.25 70.81C212.25 76.21 210.12 80.44 205.86 83.5C201.6 86.5 195.33 88 187.05 88H154.47ZM168.96 77.02H185.97C189.75 77.02 192.6 76.42 194.52 75.22C196.5 73.96 197.49 71.98 197.49 69.28C197.49 66.64 196.5 64.69 194.52 63.43C192.6 62.11 189.75 61.45 185.97 61.45H167.88V50.83H183.45C186.99 50.83 189.69 50.23 191.55 49.03C193.47 47.77 194.43 45.88 194.43 43.36C194.43 40.9 193.47 39.07 191.55 37.87C189.69 36.61 186.99 35.98 183.45 35.98H168.96V77.02ZM253.888 89.08C248.908 89.08 244.288 88.27 240.028 86.65C235.828 85.03 232.168 82.75 229.048 79.81C225.988 76.87 223.588 73.42 221.848 69.46C220.168 65.5 219.328 61.18 219.328 56.5C219.328 51.82 220.168 47.5 221.848 43.54C223.588 39.58 226.018 36.13 229.138 33.19C232.258 30.25 235.918 27.97 240.118 26.35C244.318 24.73 248.878 23.92 253.798 23.92C258.778 23.92 263.338 24.73 267.478 26.35C271.678 27.97 275.308 30.25 278.368 33.19C281.488 36.13 283.918 39.58 285.658 43.54C287.398 47.44 288.268 51.76 288.268 56.5C288.268 61.18 287.398 65.53 285.658 69.55C283.918 73.51 281.488 76.96 278.368 79.9C275.308 82.78 271.678 85.03 267.478 86.65C263.338 88.27 258.808 89.08 253.888 89.08ZM253.798 76.66C256.618 76.66 259.198 76.18 261.538 75.22C263.938 74.26 266.038 72.88 267.838 71.08C269.638 69.28 271.018 67.15 271.978 64.69C272.998 62.23 273.508 59.5 273.508 56.5C273.508 53.5 272.998 50.77 271.978 48.31C271.018 45.85 269.638 43.72 267.838 41.92C266.098 40.12 264.028 38.74 261.628 37.78C259.228 36.82 256.618 36.34 253.798 36.34C250.978 36.34 248.368 36.82 245.968 37.78C243.628 38.74 241.558 40.12 239.758 41.92C237.958 43.72 236.548 45.85 235.528 48.31C234.568 50.77 234.088 53.5 234.088 56.5C234.088 59.44 234.568 62.17 235.528 64.69C236.548 67.15 237.928 69.28 239.668 71.08C241.468 72.88 243.568 74.26 245.968 75.22C248.368 76.18 250.978 76.66 253.798 76.66ZM319.926 89.08C314.886 89.08 310.056 88.42 305.436 87.1C300.816 85.72 297.096 83.95 294.276 81.79L299.226 70.81C301.926 72.73 305.106 74.32 308.766 75.58C312.486 76.78 316.236 77.38 320.016 77.38C322.896 77.38 325.206 77.11 326.946 76.57C328.746 75.97 330.066 75.16 330.906 74.14C331.746 73.12 332.166 71.95 332.166 70.63C332.166 68.95 331.506 67.63 330.186 66.67C328.866 65.65 327.126 64.84 324.966 64.24C322.806 63.58 320.406 62.98 317.766 62.44C315.186 61.84 312.576 61.12 309.936 60.28C307.356 59.44 304.986 58.36 302.826 57.04C300.666 55.72 298.896 53.98 297.516 51.82C296.196 49.66 295.536 46.9 295.536 43.54C295.536 39.94 296.496 36.67 298.416 33.73C300.396 30.73 303.336 28.36 307.236 26.62C311.196 24.82 316.146 23.92 322.086 23.92C326.046 23.92 329.946 24.4 333.786 25.36C337.626 26.26 341.016 27.64 343.956 29.5L339.456 40.57C336.516 38.89 333.576 37.66 330.636 36.88C327.696 36.04 324.816 35.62 321.996 35.62C319.176 35.62 316.866 35.95 315.066 36.61C313.266 37.27 311.976 38.14 311.196 39.22C310.416 40.24 310.026 41.44 310.026 42.82C310.026 44.44 310.686 45.76 312.006 46.78C313.326 47.74 315.066 48.52 317.226 49.12C319.386 49.72 321.756 50.32 324.336 50.92C326.976 51.52 329.586 52.21 332.166 52.99C334.806 53.77 337.206 54.82 339.366 56.14C341.526 57.46 343.266 59.2 344.586 61.36C345.966 63.52 346.656 66.25 346.656 69.55C346.656 73.09 345.666 76.33 343.686 79.27C341.706 82.21 338.736 84.58 334.776 86.38C330.876 88.18 325.926 89.08 319.926 89.08ZM377.318 89.08C372.278 89.08 367.448 88.42 362.828 87.1C358.208 85.72 354.488 83.95 351.668 81.79L356.618 70.81C359.318 72.73 362.498 74.32 366.158 75.58C369.878 76.78 373.628 77.38 377.408 77.38C380.288 77.38 382.598 77.11 384.338 76.57C386.138 75.97 387.458 75.16 388.298 74.14C389.138 73.12 389.558 71.95 389.558 70.63C389.558 68.95 388.898 67.63 387.578 66.67C386.258 65.65 384.518 64.84 382.358 64.24C380.198 63.58 377.798 62.98 375.158 62.44C372.578 61.84 369.968 61.12 367.328 60.28C364.748 59.44 362.378 58.36 360.218 57.04C358.058 55.72 356.288 53.98 354.908 51.82C353.588 49.66 352.928 46.9 352.928 43.54C352.928 39.94 353.888 36.67 355.808 33.73C357.788 30.73 360.728 28.36 364.628 26.62C368.588 24.82 373.538 23.92 379.478 23.92C383.438 23.92 387.338 24.4 391.178 25.36C395.018 26.26 398.408 27.64 401.348 29.5L396.848 40.57C393.908 38.89 390.968 37.66 388.028 36.88C385.088 36.04 382.208 35.62 379.388 35.62C376.568 35.62 374.258 35.95 372.458 36.61C370.658 37.27 369.368 38.14 368.588 39.22C367.808 40.24 367.418 41.44 367.418 42.82C367.418 44.44 368.078 45.76 369.398 46.78C370.718 47.74 372.458 48.52 374.618 49.12C376.778 49.72 379.148 50.32 381.728 50.92C384.368 51.52 386.978 52.21 389.558 52.99C392.198 53.77 394.598 54.82 396.758 56.14C398.918 57.46 400.658 59.2 401.978 61.36C403.358 63.52 404.048 66.25 404.048 69.55C404.048 73.09 403.058 76.33 401.078 79.27C399.098 82.21 396.128 84.58 392.168 86.38C388.268 88.18 383.318 89.08 377.318 89.08Z" fill="#1A2F4A"/>
<path d="M148.826 123V107.6H156.35C158.286 107.6 159.738 107.967 160.706 108.7C161.689 109.433 162.18 110.401 162.18 111.604C162.18 112.411 161.982 113.115 161.586 113.716C161.19 114.303 160.647 114.757 159.958 115.08C159.269 115.403 158.477 115.564 157.582 115.564L158 114.662C158.968 114.662 159.826 114.823 160.574 115.146C161.322 115.454 161.901 115.916 162.312 116.532C162.737 117.148 162.95 117.903 162.95 118.798C162.95 120.118 162.429 121.152 161.388 121.9C160.347 122.633 158.814 123 156.79 123H148.826ZM152.368 120.316H156.526C157.45 120.316 158.147 120.169 158.616 119.876C159.1 119.568 159.342 119.084 159.342 118.424C159.342 117.779 159.1 117.302 158.616 116.994C158.147 116.671 157.45 116.51 156.526 116.51H152.104V113.914H155.91C156.775 113.914 157.435 113.767 157.89 113.474C158.359 113.166 158.594 112.704 158.594 112.088C158.594 111.487 158.359 111.039 157.89 110.746C157.435 110.438 156.775 110.284 155.91 110.284H152.368V120.316ZM172.93 123.264C170.745 123.264 169.036 122.655 167.804 121.438C166.572 120.221 165.956 118.483 165.956 116.224V107.6H169.52V116.092C169.52 117.559 169.821 118.615 170.422 119.26C171.024 119.905 171.867 120.228 172.952 120.228C174.038 120.228 174.881 119.905 175.482 119.26C176.084 118.615 176.384 117.559 176.384 116.092V107.6H179.904V116.224C179.904 118.483 179.288 120.221 178.056 121.438C176.824 122.655 175.116 123.264 172.93 123.264ZM188.926 123.264C187.694 123.264 186.513 123.103 185.384 122.78C184.255 122.443 183.345 122.01 182.656 121.482L183.866 118.798C184.526 119.267 185.303 119.656 186.198 119.964C187.107 120.257 188.024 120.404 188.948 120.404C189.652 120.404 190.217 120.338 190.642 120.206C191.082 120.059 191.405 119.861 191.61 119.612C191.815 119.363 191.918 119.077 191.918 118.754C191.918 118.343 191.757 118.021 191.434 117.786C191.111 117.537 190.686 117.339 190.158 117.192C189.63 117.031 189.043 116.884 188.398 116.752C187.767 116.605 187.129 116.429 186.484 116.224C185.853 116.019 185.274 115.755 184.746 115.432C184.218 115.109 183.785 114.684 183.448 114.156C183.125 113.628 182.964 112.953 182.964 112.132C182.964 111.252 183.199 110.453 183.668 109.734C184.152 109.001 184.871 108.421 185.824 107.996C186.792 107.556 188.002 107.336 189.454 107.336C190.422 107.336 191.375 107.453 192.314 107.688C193.253 107.908 194.081 108.245 194.8 108.7L193.7 111.406C192.981 110.995 192.263 110.695 191.544 110.504C190.825 110.299 190.121 110.196 189.432 110.196C188.743 110.196 188.178 110.277 187.738 110.438C187.298 110.599 186.983 110.812 186.792 111.076C186.601 111.325 186.506 111.619 186.506 111.956C186.506 112.352 186.667 112.675 186.99 112.924C187.313 113.159 187.738 113.349 188.266 113.496C188.794 113.643 189.373 113.789 190.004 113.936C190.649 114.083 191.287 114.251 191.918 114.442C192.563 114.633 193.15 114.889 193.678 115.212C194.206 115.535 194.631 115.96 194.954 116.488C195.291 117.016 195.46 117.683 195.46 118.49C195.46 119.355 195.218 120.147 194.734 120.866C194.25 121.585 193.524 122.164 192.556 122.604C191.603 123.044 190.393 123.264 188.926 123.264ZM203.395 123.264C202.163 123.264 200.983 123.103 199.853 122.78C198.724 122.443 197.815 122.01 197.125 121.482L198.335 118.798C198.995 119.267 199.773 119.656 200.667 119.964C201.577 120.257 202.493 120.404 203.417 120.404C204.121 120.404 204.686 120.338 205.111 120.206C205.551 120.059 205.874 119.861 206.079 119.612C206.285 119.363 206.387 119.077 206.387 118.754C206.387 118.343 206.226 118.021 205.903 117.786C205.581 117.537 205.155 117.339 204.627 117.192C204.099 117.031 203.513 116.884 202.867 116.752C202.237 116.605 201.599 116.429 200.953 116.224C200.323 116.019 199.743 115.755 199.215 115.432C198.687 115.109 198.255 114.684 197.917 114.156C197.595 113.628 197.433 112.953 197.433 112.132C197.433 111.252 197.668 110.453 198.137 109.734C198.621 109.001 199.34 108.421 200.293 107.996C201.261 107.556 202.471 107.336 203.923 107.336C204.891 107.336 205.845 107.453 206.783 107.688C207.722 107.908 208.551 108.245 209.269 108.7L208.169 111.406C207.451 110.995 206.732 110.695 206.013 110.504C205.295 110.299 204.591 110.196 203.901 110.196C203.212 110.196 202.647 110.277 202.207 110.438C201.767 110.599 201.452 110.812 201.261 111.076C201.071 111.325 200.975 111.619 200.975 111.956C200.975 112.352 201.137 112.675 201.459 112.924C201.782 113.159 202.207 113.349 202.735 113.496C203.263 113.643 203.843 113.789 204.473 113.936C205.119 114.083 205.757 114.251 206.387 114.442C207.033 114.633 207.619 114.889 208.147 115.212C208.675 115.535 209.101 115.96 209.423 116.488C209.761 117.016 209.929 117.683 209.929 118.49C209.929 119.355 209.687 120.147 209.203 120.866C208.719 121.585 207.993 122.164 207.025 122.604C206.072 123.044 204.862 123.264 203.395 123.264ZM212.805 123V107.6H216.369V123H212.805ZM220.463 123V107.6H223.411L232.497 118.688H231.067V107.6H234.587V123H231.661L222.553 111.912H223.983V123H220.463ZM241.949 113.804H249.363V116.576H241.949V113.804ZM242.213 120.14H250.595V123H238.671V107.6H250.309V110.46H242.213V120.14ZM258.931 123.264C257.699 123.264 256.518 123.103 255.389 122.78C254.26 122.443 253.35 122.01 252.661 121.482L253.871 118.798C254.531 119.267 255.308 119.656 256.203 119.964C257.112 120.257 258.029 120.404 258.953 120.404C259.657 120.404 260.222 120.338 260.647 120.206C261.087 120.059 261.41 119.861 261.615 119.612C261.82 119.363 261.923 119.077 261.923 118.754C261.923 118.343 261.762 118.021 261.439 117.786C261.116 117.537 260.691 117.339 260.163 117.192C259.635 117.031 259.048 116.884 258.403 116.752C257.772 116.605 257.134 116.429 256.489 116.224C255.858 116.019 255.279 115.755 254.751 115.432C254.223 115.109 253.79 114.684 253.453 114.156C253.13 113.628 252.969 112.953 252.969 112.132C252.969 111.252 253.204 110.453 253.673 109.734C254.157 109.001 254.876 108.421 255.829 107.996C256.797 107.556 258.007 107.336 259.459 107.336C260.427 107.336 261.38 107.453 262.319 107.688C263.258 107.908 264.086 108.245 264.805 108.7L263.705 111.406C262.986 110.995 262.268 110.695 261.549 110.504C260.83 110.299 260.126 110.196 259.437 110.196C258.748 110.196 258.183 110.277 257.743 110.438C257.303 110.599 256.988 110.812 256.797 111.076C256.606 111.325 256.511 111.619 256.511 111.956C256.511 112.352 256.672 112.675 256.995 112.924C257.318 113.159 257.743 113.349 258.271 113.496C258.799 113.643 259.378 113.789 260.009 113.936C260.654 114.083 261.292 114.251 261.923 114.442C262.568 114.633 263.155 114.889 263.683 115.212C264.211 115.535 264.636 115.96 264.959 116.488C265.296 117.016 265.465 117.683 265.465 118.49C265.465 119.355 265.223 120.147 264.739 120.866C264.255 121.585 263.529 122.164 262.561 122.604C261.608 123.044 260.398 123.264 258.931 123.264ZM273.4 123.264C272.168 123.264 270.987 123.103 269.858 122.78C268.729 122.443 267.819 122.01 267.13 121.482L268.34 118.798C269 119.267 269.777 119.656 270.672 119.964C271.581 120.257 272.498 120.404 273.422 120.404C274.126 120.404 274.691 120.338 275.116 120.206C275.556 120.059 275.879 119.861 276.084 119.612C276.289 119.363 276.392 119.077 276.392 118.754C276.392 118.343 276.231 118.021 275.908 117.786C275.585 117.537 275.16 117.339 274.632 117.192C274.104 117.031 273.517 116.884 272.872 116.752C272.241 116.605 271.603 116.429 270.958 116.224C270.327 116.019 269.748 115.755 269.22 115.432C268.692 115.109 268.259 114.684 267.922 114.156C267.599 113.628 267.438 112.953 267.438 112.132C267.438 111.252 267.673 110.453 268.142 109.734C268.626 109.001 269.345 108.421 270.298 107.996C271.266 107.556 272.476 107.336 273.928 107.336C274.896 107.336 275.849 107.453 276.788 107.688C277.727 107.908 278.555 108.245 279.274 108.7L278.174 111.406C277.455 110.995 276.737 110.695 276.018 110.504C275.299 110.299 274.595 110.196 273.906 110.196C273.217 110.196 272.652 110.277 272.212 110.438C271.772 110.599 271.457 110.812 271.266 111.076C271.075 111.325 270.98 111.619 270.98 111.956C270.98 112.352 271.141 112.675 271.464 112.924C271.787 113.159 272.212 113.349 272.74 113.496C273.268 113.643 273.847 113.789 274.478 113.936C275.123 114.083 275.761 114.251 276.392 114.442C277.037 114.633 277.624 114.889 278.152 115.212C278.68 115.535 279.105 115.96 279.428 116.488C279.765 117.016 279.934 117.683 279.934 118.49C279.934 119.355 279.692 120.147 279.208 120.866C278.724 121.585 277.998 122.164 277.03 122.604C276.077 123.044 274.867 123.264 273.4 123.264ZM296.96 123.264C295.743 123.264 294.613 123.066 293.572 122.67C292.545 122.274 291.651 121.717 290.888 120.998C290.14 120.279 289.553 119.436 289.128 118.468C288.717 117.5 288.512 116.444 288.512 115.3C288.512 114.156 288.717 113.1 289.128 112.132C289.553 111.164 290.147 110.321 290.91 109.602C291.673 108.883 292.567 108.326 293.594 107.93C294.621 107.534 295.735 107.336 296.938 107.336C298.155 107.336 299.27 107.534 300.282 107.93C301.309 108.326 302.196 108.883 302.944 109.602C303.707 110.321 304.301 111.164 304.726 112.132C305.151 113.085 305.364 114.141 305.364 115.3C305.364 116.444 305.151 117.507 304.726 118.49C304.301 119.458 303.707 120.301 302.944 121.02C302.196 121.724 301.309 122.274 300.282 122.67C299.27 123.066 298.163 123.264 296.96 123.264ZM296.938 120.228C297.627 120.228 298.258 120.111 298.83 119.876C299.417 119.641 299.93 119.304 300.37 118.864C300.81 118.424 301.147 117.903 301.382 117.302C301.631 116.701 301.756 116.033 301.756 115.3C301.756 114.567 301.631 113.899 301.382 113.298C301.147 112.697 300.81 112.176 300.37 111.736C299.945 111.296 299.439 110.959 298.852 110.724C298.265 110.489 297.627 110.372 296.938 110.372C296.249 110.372 295.611 110.489 295.024 110.724C294.452 110.959 293.946 111.296 293.506 111.736C293.066 112.176 292.721 112.697 292.472 113.298C292.237 113.899 292.12 114.567 292.12 115.3C292.12 116.019 292.237 116.686 292.472 117.302C292.721 117.903 293.059 118.424 293.484 118.864C293.924 119.304 294.437 119.641 295.024 119.876C295.611 120.111 296.249 120.228 296.938 120.228ZM308.482 123V107.6H311.43L320.516 118.688H319.086V107.6H322.606V123H319.68L310.572 111.912H312.002V123H308.482ZM329.968 113.804H337.382V116.576H329.968V113.804ZM330.232 120.14H338.614V123H326.69V107.6H338.328V110.46H330.232V120.14ZM353.62 123.264C352.388 123.264 351.208 123.103 350.078 122.78C348.949 122.443 348.04 122.01 347.35 121.482L348.56 118.798C349.22 119.267 349.998 119.656 350.892 119.964C351.802 120.257 352.718 120.404 353.642 120.404C354.346 120.404 354.911 120.338 355.336 120.206C355.776 120.059 356.099 119.861 356.304 119.612C356.51 119.363 356.612 119.077 356.612 118.754C356.612 118.343 356.451 118.021 356.128 117.786C355.806 117.537 355.38 117.339 354.852 117.192C354.324 117.031 353.738 116.884 353.092 116.752C352.462 116.605 351.824 116.429 351.178 116.224C350.548 116.019 349.968 115.755 349.44 115.432C348.912 115.109 348.48 114.684 348.142 114.156C347.82 113.628 347.658 112.953 347.658 112.132C347.658 111.252 347.893 110.453 348.362 109.734C348.846 109.001 349.565 108.421 350.518 107.996C351.486 107.556 352.696 107.336 354.148 107.336C355.116 107.336 356.07 107.453 357.008 107.688C357.947 107.908 358.776 108.245 359.494 108.7L358.394 111.406C357.676 110.995 356.957 110.695 356.238 110.504C355.52 110.299 354.816 110.196 354.126 110.196C353.437 110.196 352.872 110.277 352.432 110.438C351.992 110.599 351.677 110.812 351.486 111.076C351.296 111.325 351.2 111.619 351.2 111.956C351.2 112.352 351.362 112.675 351.684 112.924C352.007 113.159 352.432 113.349 352.96 113.496C353.488 113.643 354.068 113.789 354.698 113.936C355.344 114.083 355.982 114.251 356.612 114.442C357.258 114.633 357.844 114.889 358.372 115.212C358.9 115.535 359.326 115.96 359.648 116.488C359.986 117.016 360.154 117.683 360.154 118.49C360.154 119.355 359.912 120.147 359.428 120.866C358.944 121.585 358.218 122.164 357.25 122.604C356.297 123.044 355.087 123.264 353.62 123.264ZM366.005 123V110.504H361.077V107.6H374.497V110.504H369.569V123H366.005ZM384.119 123.264C382.902 123.264 381.773 123.066 380.731 122.67C379.705 122.274 378.81 121.717 378.047 120.998C377.299 120.279 376.713 119.436 376.287 118.468C375.877 117.5 375.671 116.444 375.671 115.3C375.671 114.156 375.877 113.1 376.287 112.132C376.713 111.164 377.307 110.321 378.069 109.602C378.832 108.883 379.727 108.326 380.753 107.93C381.78 107.534 382.895 107.336 384.097 107.336C385.315 107.336 386.429 107.534 387.441 107.93C388.468 108.326 389.355 108.883 390.103 109.602C390.866 110.321 391.46 111.164 391.885 112.132C392.311 113.085 392.523 114.141 392.523 115.3C392.523 116.444 392.311 117.507 391.885 118.49C391.46 119.458 390.866 120.301 390.103 121.02C389.355 121.724 388.468 122.274 387.441 122.67C386.429 123.066 385.322 123.264 384.119 123.264ZM384.097 120.228C384.787 120.228 385.417 120.111 385.989 119.876C386.576 119.641 387.089 119.304 387.529 118.864C387.969 118.424 388.307 117.903 388.541 117.302C388.791 116.701 388.915 116.033 388.915 115.3C388.915 114.567 388.791 113.899 388.541 113.298C388.307 112.697 387.969 112.176 387.529 111.736C387.104 111.296 386.598 110.959 386.011 110.724C385.425 110.489 384.787 110.372 384.097 110.372C383.408 110.372 382.77 110.489 382.183 110.724C381.611 110.959 381.105 111.296 380.665 111.736C380.225 112.176 379.881 112.697 379.631 113.298C379.397 113.899 379.279 114.567 379.279 115.3C379.279 116.019 379.397 116.686 379.631 117.302C379.881 117.903 380.218 118.424 380.643 118.864C381.083 119.304 381.597 119.641 382.183 119.876C382.77 120.111 383.408 120.228 384.097 120.228ZM395.642 123V107.6H402.308C403.687 107.6 404.875 107.827 405.872 108.282C406.869 108.722 407.639 109.36 408.182 110.196C408.725 111.032 408.996 112.029 408.996 113.188C408.996 114.332 408.725 115.322 408.182 116.158C407.639 116.994 406.869 117.639 405.872 118.094C404.875 118.534 403.687 118.754 402.308 118.754H397.622L399.206 117.148V123H395.642ZM399.206 117.544L397.622 115.85H402.11C403.21 115.85 404.031 115.615 404.574 115.146C405.117 114.677 405.388 114.024 405.388 113.188C405.388 112.337 405.117 111.677 404.574 111.208C404.031 110.739 403.21 110.504 402.11 110.504H397.622L399.206 108.81V117.544ZM423.926 123.264C422.694 123.264 421.513 123.103 420.384 122.78C419.254 122.443 418.345 122.01 417.656 121.482L418.866 118.798C419.526 119.267 420.303 119.656 421.198 119.964C422.107 120.257 423.024 120.404 423.948 120.404C424.652 120.404 425.216 120.338 425.642 120.206C426.082 120.059 426.404 119.861 426.61 119.612C426.815 119.363 426.918 119.077 426.918 118.754C426.918 118.343 426.756 118.021 426.434 117.786C426.111 117.537 425.686 117.339 425.158 117.192C424.63 117.031 424.043 116.884 423.398 116.752C422.767 116.605 422.129 116.429 421.484 116.224C420.853 116.019 420.274 115.755 419.746 115.432C419.218 115.109 418.785 114.684 418.448 114.156C418.125 113.628 417.964 112.953 417.964 112.132C417.964 111.252 418.198 110.453 418.668 109.734C419.152 109.001 419.87 108.421 420.824 107.996C421.792 107.556 423.002 107.336 424.454 107.336C425.422 107.336 426.375 107.453 427.314 107.688C428.252 107.908 429.081 108.245 429.8 108.7L428.7 111.406C427.981 110.995 427.262 110.695 426.544 110.504C425.825 110.299 425.121 110.196 424.432 110.196C423.742 110.196 423.178 110.277 422.738 110.438C422.298 110.599 421.982 110.812 421.792 111.076C421.601 111.325 421.506 111.619 421.506 111.956C421.506 112.352 421.667 112.675 421.99 112.924C422.312 113.159 422.738 113.349 423.266 113.496C423.794 113.643 424.373 113.789 425.004 113.936C425.649 114.083 426.287 114.251 426.918 114.442C427.563 114.633 428.15 114.889 428.678 115.212C429.206 115.535 429.631 115.96 429.954 116.488C430.291 117.016 430.46 117.683 430.46 118.49C430.46 119.355 430.218 120.147 429.734 120.866C429.25 121.585 428.524 122.164 427.556 122.604C426.602 123.044 425.392 123.264 423.926 123.264ZM436.841 123V116.708L437.655 118.864L430.879 107.6H434.663L439.855 116.246H437.677L442.891 107.6H446.389L439.613 118.864L440.405 116.708V123H436.841ZM453.058 123.264C451.826 123.264 450.645 123.103 449.516 122.78C448.386 122.443 447.477 122.01 446.788 121.482L447.998 118.798C448.658 119.267 449.435 119.656 450.33 119.964C451.239 120.257 452.156 120.404 453.08 120.404C453.784 120.404 454.348 120.338 454.774 120.206C455.214 120.059 455.536 119.861 455.742 119.612C455.947 119.363 456.05 119.077 456.05 118.754C456.05 118.343 455.888 118.021 455.566 117.786C455.243 117.537 454.818 117.339 454.29 117.192C453.762 117.031 453.175 116.884 452.53 116.752C451.899 116.605 451.261 116.429 450.616 116.224C449.985 116.019 449.406 115.755 448.878 115.432C448.35 115.109 447.917 114.684 447.58 114.156C447.257 113.628 447.096 112.953 447.096 112.132C447.096 111.252 447.33 110.453 447.8 109.734C448.284 109.001 449.002 108.421 449.956 107.996C450.924 107.556 452.134 107.336 453.586 107.336C454.554 107.336 455.507 107.453 456.446 107.688C457.384 107.908 458.213 108.245 458.932 108.7L457.832 111.406C457.113 110.995 456.394 110.695 455.676 110.504C454.957 110.299 454.253 110.196 453.564 110.196C452.874 110.196 452.31 110.277 451.87 110.438C451.43 110.599 451.114 110.812 450.924 111.076C450.733 111.325 450.638 111.619 450.638 111.956C450.638 112.352 450.799 112.675 451.122 112.924C451.444 113.159 451.87 113.349 452.398 113.496C452.926 113.643 453.505 113.789 454.136 113.936C454.781 114.083 455.419 114.251 456.05 114.442C456.695 114.633 457.282 114.889 457.81 115.212C458.338 115.535 458.763 115.96 459.086 116.488C459.423 117.016 459.592 117.683 459.592 118.49C459.592 119.355 459.35 120.147 458.866 120.866C458.382 121.585 457.656 122.164 456.688 122.604C455.734 123.044 454.524 123.264 453.058 123.264ZM465.442 123V110.504H460.514V107.6H473.934V110.504H469.006V123H465.442ZM479.57 113.804H486.984V116.576H479.57V113.804ZM479.834 120.14H488.216V123H476.292V107.6H487.93V110.46H479.834V120.14ZM491.491 123V107.6H494.439L500.995 118.468H499.433L505.879 107.6H508.805L508.849 123H505.505L505.483 112.726H506.099L500.951 121.372H499.345L494.087 112.726H494.835V123H491.491Z" fill="white"/>
<path d="M42.5 40C30.928 26.7541 26 0.0163798 26 0.0163798C26 0.0163798 55.9644 -0.00426997 76.5 0.0163798C92.9203 0.0328915 113.732 -0.148075 119.5 1.49997C130 4.49997 136.174 13.7501 137.5 24.5C138.672 34.0038 135 43.5 132 48C129 52.5 111.821 67.2602 96 70C85.8465 71.7583 81.0142 68.0422 71.5 72C66.9821 73.8794 64.4323 75.0877 60.5 78C53.5886 83.1186 42.5 96 42.5 96C42.5 96 58.0416 98 68 98C77.9584 98 88 98.5 93.5 96C99 93.5 103.269 90.6201 104.5 86.5C106.046 81.3254 101.5 73 101.5 73L119.5 65C119.5 65 135 82.5 123 99.5C111 116.5 86 116 86 116H0C0 116 16.3434 95.5995 28.5 84C46.291 67.0242 65.5 52.6756 76.5 50C87.5 47.3244 99.0261 54.3413 108.5 48.5C114.652 44.7069 116.845 41.5637 117 35.5C117.119 30.8602 115.169 27.619 112.5 24.5C106.832 17.8769 90.5 18 90.5 18C90.5 18 73.8859 17.322 68 24.5C65.057 28.089 63.3132 30.8624 63.5 35.5C63.7376 41.3985 72 48 72 48L58.5 55C58.5 55 47.6 45.8377 42.5 40Z" fill="white"/>
</svg>
