<svg width="589" height="166" viewBox="0 0 589 166" fill="none" xmlns="http://www.w3.org/2000/svg">
<path d="M159.826 150V134.6H167.35C169.286 134.6 170.738 134.967 171.706 135.7C172.689 136.433 173.18 137.401 173.18 138.604C173.18 139.411 172.982 140.115 172.586 140.716C172.19 141.303 171.647 141.757 170.958 142.08C170.269 142.403 169.477 142.564 168.582 142.564L169 141.662C169.968 141.662 170.826 141.823 171.574 142.146C172.322 142.454 172.901 142.916 173.312 143.532C173.737 144.148 173.95 144.903 173.95 145.798C173.95 147.118 173.429 148.152 172.388 148.9C171.347 149.633 169.814 150 167.79 150H159.826ZM163.368 147.316H167.526C168.45 147.316 169.147 147.169 169.616 146.876C170.1 146.568 170.342 146.084 170.342 145.424C170.342 144.779 170.1 144.302 169.616 143.994C169.147 143.671 168.45 143.51 167.526 143.51H163.104V140.914H166.91C167.775 140.914 168.435 140.767 168.89 140.474C169.359 140.166 169.594 139.704 169.594 139.088C169.594 138.487 169.359 138.039 168.89 137.746C168.435 137.438 167.775 137.284 166.91 137.284H163.368V147.316ZM183.93 150.264C181.745 150.264 180.036 149.655 178.804 148.438C177.572 147.221 176.956 145.483 176.956 143.224V134.6H180.52V143.092C180.52 144.559 180.821 145.615 181.422 146.26C182.024 146.905 182.867 147.228 183.952 147.228C185.038 147.228 185.881 146.905 186.482 146.26C187.084 145.615 187.384 144.559 187.384 143.092V134.6H190.904V143.224C190.904 145.483 190.288 147.221 189.056 148.438C187.824 149.655 186.116 150.264 183.93 150.264ZM199.926 150.264C198.694 150.264 197.513 150.103 196.384 149.78C195.255 149.443 194.345 149.01 193.656 148.482L194.866 145.798C195.526 146.267 196.303 146.656 197.198 146.964C198.107 147.257 199.024 147.404 199.948 147.404C200.652 147.404 201.217 147.338 201.642 147.206C202.082 147.059 202.405 146.861 202.61 146.612C202.815 146.363 202.918 146.077 202.918 145.754C202.918 145.343 202.757 145.021 202.434 144.786C202.111 144.537 201.686 144.339 201.158 144.192C200.63 144.031 200.043 143.884 199.398 143.752C198.767 143.605 198.129 143.429 197.484 143.224C196.853 143.019 196.274 142.755 195.746 142.432C195.218 142.109 194.785 141.684 194.448 141.156C194.125 140.628 193.964 139.953 193.964 139.132C193.964 138.252 194.199 137.453 194.668 136.734C195.152 136.001 195.871 135.421 196.824 134.996C197.792 134.556 199.002 134.336 200.454 134.336C201.422 134.336 202.375 134.453 203.314 134.688C204.253 134.908 205.081 135.245 205.8 135.7L204.7 138.406C203.981 137.995 203.263 137.695 202.544 137.504C201.825 137.299 201.121 137.196 200.432 137.196C199.743 137.196 199.178 137.277 198.738 137.438C198.298 137.599 197.983 137.812 197.792 138.076C197.601 138.325 197.506 138.619 197.506 138.956C197.506 139.352 197.667 139.675 197.99 139.924C198.313 140.159 198.738 140.349 199.266 140.496C199.794 140.643 200.373 140.789 201.004 140.936C201.649 141.083 202.287 141.251 202.918 141.442C203.563 141.633 204.15 141.889 204.678 142.212C205.206 142.535 205.631 142.96 205.954 143.488C206.291 144.016 206.46 144.683 206.46 145.49C206.46 146.355 206.218 147.147 205.734 147.866C205.25 148.585 204.524 149.164 203.556 149.604C202.603 150.044 201.393 150.264 199.926 150.264ZM214.395 150.264C213.163 150.264 211.983 150.103 210.853 149.78C209.724 149.443 208.815 149.01 208.125 148.482L209.335 145.798C209.995 146.267 210.773 146.656 211.667 146.964C212.577 147.257 213.493 147.404 214.417 147.404C215.121 147.404 215.686 147.338 216.111 147.206C216.551 147.059 216.874 146.861 217.079 146.612C217.285 146.363 217.387 146.077 217.387 145.754C217.387 145.343 217.226 145.021 216.903 144.786C216.581 144.537 216.155 144.339 215.627 144.192C215.099 144.031 214.513 143.884 213.867 143.752C213.237 143.605 212.599 143.429 211.953 143.224C211.323 143.019 210.743 142.755 210.215 142.432C209.687 142.109 209.255 141.684 208.917 141.156C208.595 140.628 208.433 139.953 208.433 139.132C208.433 138.252 208.668 137.453 209.137 136.734C209.621 136.001 210.34 135.421 211.293 134.996C212.261 134.556 213.471 134.336 214.923 134.336C215.891 134.336 216.845 134.453 217.783 134.688C218.722 134.908 219.551 135.245 220.269 135.7L219.169 138.406C218.451 137.995 217.732 137.695 217.013 137.504C216.295 137.299 215.591 137.196 214.901 137.196C214.212 137.196 213.647 137.277 213.207 137.438C212.767 137.599 212.452 137.812 212.261 138.076C212.071 138.325 211.975 138.619 211.975 138.956C211.975 139.352 212.137 139.675 212.459 139.924C212.782 140.159 213.207 140.349 213.735 140.496C214.263 140.643 214.843 140.789 215.473 140.936C216.119 141.083 216.757 141.251 217.387 141.442C218.033 141.633 218.619 141.889 219.147 142.212C219.675 142.535 220.101 142.96 220.423 143.488C220.761 144.016 220.929 144.683 220.929 145.49C220.929 146.355 220.687 147.147 220.203 147.866C219.719 148.585 218.993 149.164 218.025 149.604C217.072 150.044 215.862 150.264 214.395 150.264ZM223.805 150V134.6H227.369V150H223.805ZM231.463 150V134.6H234.411L243.497 145.688H242.067V134.6H245.587V150H242.661L233.553 138.912H234.983V150H231.463ZM252.949 140.804H260.363V143.576H252.949V140.804ZM253.213 147.14H261.595V150H249.671V134.6H261.309V137.46H253.213V147.14ZM269.931 150.264C268.699 150.264 267.518 150.103 266.389 149.78C265.26 149.443 264.35 149.01 263.661 148.482L264.871 145.798C265.531 146.267 266.308 146.656 267.203 146.964C268.112 147.257 269.029 147.404 269.953 147.404C270.657 147.404 271.222 147.338 271.647 147.206C272.087 147.059 272.41 146.861 272.615 146.612C272.82 146.363 272.923 146.077 272.923 145.754C272.923 145.343 272.762 145.021 272.439 144.786C272.116 144.537 271.691 144.339 271.163 144.192C270.635 144.031 270.048 143.884 269.403 143.752C268.772 143.605 268.134 143.429 267.489 143.224C266.858 143.019 266.279 142.755 265.751 142.432C265.223 142.109 264.79 141.684 264.453 141.156C264.13 140.628 263.969 139.953 263.969 139.132C263.969 138.252 264.204 137.453 264.673 136.734C265.157 136.001 265.876 135.421 266.829 134.996C267.797 134.556 269.007 134.336 270.459 134.336C271.427 134.336 272.38 134.453 273.319 134.688C274.258 134.908 275.086 135.245 275.805 135.7L274.705 138.406C273.986 137.995 273.268 137.695 272.549 137.504C271.83 137.299 271.126 137.196 270.437 137.196C269.748 137.196 269.183 137.277 268.743 137.438C268.303 137.599 267.988 137.812 267.797 138.076C267.606 138.325 267.511 138.619 267.511 138.956C267.511 139.352 267.672 139.675 267.995 139.924C268.318 140.159 268.743 140.349 269.271 140.496C269.799 140.643 270.378 140.789 271.009 140.936C271.654 141.083 272.292 141.251 272.923 141.442C273.568 141.633 274.155 141.889 274.683 142.212C275.211 142.535 275.636 142.96 275.959 143.488C276.296 144.016 276.465 144.683 276.465 145.49C276.465 146.355 276.223 147.147 275.739 147.866C275.255 148.585 274.529 149.164 273.561 149.604C272.608 150.044 271.398 150.264 269.931 150.264ZM284.4 150.264C283.168 150.264 281.987 150.103 280.858 149.78C279.729 149.443 278.819 149.01 278.13 148.482L279.34 145.798C280 146.267 280.777 146.656 281.672 146.964C282.581 147.257 283.498 147.404 284.422 147.404C285.126 147.404 285.691 147.338 286.116 147.206C286.556 147.059 286.879 146.861 287.084 146.612C287.289 146.363 287.392 146.077 287.392 145.754C287.392 145.343 287.231 145.021 286.908 144.786C286.585 144.537 286.16 144.339 285.632 144.192C285.104 144.031 284.517 143.884 283.872 143.752C283.241 143.605 282.603 143.429 281.958 143.224C281.327 143.019 280.748 142.755 280.22 142.432C279.692 142.109 279.259 141.684 278.922 141.156C278.599 140.628 278.438 139.953 278.438 139.132C278.438 138.252 278.673 137.453 279.142 136.734C279.626 136.001 280.345 135.421 281.298 134.996C282.266 134.556 283.476 134.336 284.928 134.336C285.896 134.336 286.849 134.453 287.788 134.688C288.727 134.908 289.555 135.245 290.274 135.7L289.174 138.406C288.455 137.995 287.737 137.695 287.018 137.504C286.299 137.299 285.595 137.196 284.906 137.196C284.217 137.196 283.652 137.277 283.212 137.438C282.772 137.599 282.457 137.812 282.266 138.076C282.075 138.325 281.98 138.619 281.98 138.956C281.98 139.352 282.141 139.675 282.464 139.924C282.787 140.159 283.212 140.349 283.74 140.496C284.268 140.643 284.847 140.789 285.478 140.936C286.123 141.083 286.761 141.251 287.392 141.442C288.037 141.633 288.624 141.889 289.152 142.212C289.68 142.535 290.105 142.96 290.428 143.488C290.765 144.016 290.934 144.683 290.934 145.49C290.934 146.355 290.692 147.147 290.208 147.866C289.724 148.585 288.998 149.164 288.03 149.604C287.077 150.044 285.867 150.264 284.4 150.264ZM307.96 150.264C306.743 150.264 305.613 150.066 304.572 149.67C303.545 149.274 302.651 148.717 301.888 147.998C301.14 147.279 300.553 146.436 300.128 145.468C299.717 144.5 299.512 143.444 299.512 142.3C299.512 141.156 299.717 140.1 300.128 139.132C300.553 138.164 301.147 137.321 301.91 136.602C302.673 135.883 303.567 135.326 304.594 134.93C305.621 134.534 306.735 134.336 307.938 134.336C309.155 134.336 310.27 134.534 311.282 134.93C312.309 135.326 313.196 135.883 313.944 136.602C314.707 137.321 315.301 138.164 315.726 139.132C316.151 140.085 316.364 141.141 316.364 142.3C316.364 143.444 316.151 144.507 315.726 145.49C315.301 146.458 314.707 147.301 313.944 148.02C313.196 148.724 312.309 149.274 311.282 149.67C310.27 150.066 309.163 150.264 307.96 150.264ZM307.938 147.228C308.627 147.228 309.258 147.111 309.83 146.876C310.417 146.641 310.93 146.304 311.37 145.864C311.81 145.424 312.147 144.903 312.382 144.302C312.631 143.701 312.756 143.033 312.756 142.3C312.756 141.567 312.631 140.899 312.382 140.298C312.147 139.697 311.81 139.176 311.37 138.736C310.945 138.296 310.439 137.959 309.852 137.724C309.265 137.489 308.627 137.372 307.938 137.372C307.249 137.372 306.611 137.489 306.024 137.724C305.452 137.959 304.946 138.296 304.506 138.736C304.066 139.176 303.721 139.697 303.472 140.298C303.237 140.899 303.12 141.567 303.12 142.3C303.12 143.019 303.237 143.686 303.472 144.302C303.721 144.903 304.059 145.424 304.484 145.864C304.924 146.304 305.437 146.641 306.024 146.876C306.611 147.111 307.249 147.228 307.938 147.228ZM319.482 150V134.6H322.43L331.516 145.688H330.086V134.6H333.606V150H330.68L321.572 138.912H323.002V150H319.482ZM340.968 140.804H348.382V143.576H340.968V140.804ZM341.232 147.14H349.614V150H337.69V134.6H349.328V137.46H341.232V147.14ZM364.62 150.264C363.388 150.264 362.208 150.103 361.078 149.78C359.949 149.443 359.04 149.01 358.35 148.482L359.56 145.798C360.22 146.267 360.998 146.656 361.892 146.964C362.802 147.257 363.718 147.404 364.642 147.404C365.346 147.404 365.911 147.338 366.336 147.206C366.776 147.059 367.099 146.861 367.304 146.612C367.51 146.363 367.612 146.077 367.612 145.754C367.612 145.343 367.451 145.021 367.128 144.786C366.806 144.537 366.38 144.339 365.852 144.192C365.324 144.031 364.738 143.884 364.092 143.752C363.462 143.605 362.824 143.429 362.178 143.224C361.548 143.019 360.968 142.755 360.44 142.432C359.912 142.109 359.48 141.684 359.142 141.156C358.82 140.628 358.658 139.953 358.658 139.132C358.658 138.252 358.893 137.453 359.362 136.734C359.846 136.001 360.565 135.421 361.518 134.996C362.486 134.556 363.696 134.336 365.148 134.336C366.116 134.336 367.07 134.453 368.008 134.688C368.947 134.908 369.776 135.245 370.494 135.7L369.394 138.406C368.676 137.995 367.957 137.695 367.238 137.504C366.52 137.299 365.816 137.196 365.126 137.196C364.437 137.196 363.872 137.277 363.432 137.438C362.992 137.599 362.677 137.812 362.486 138.076C362.296 138.325 362.2 138.619 362.2 138.956C362.2 139.352 362.362 139.675 362.684 139.924C363.007 140.159 363.432 140.349 363.96 140.496C364.488 140.643 365.068 140.789 365.698 140.936C366.344 141.083 366.982 141.251 367.612 141.442C368.258 141.633 368.844 141.889 369.372 142.212C369.9 142.535 370.326 142.96 370.648 143.488C370.986 144.016 371.154 144.683 371.154 145.49C371.154 146.355 370.912 147.147 370.428 147.866C369.944 148.585 369.218 149.164 368.25 149.604C367.297 150.044 366.087 150.264 364.62 150.264ZM377.005 150V137.504H372.077V134.6H385.497V137.504H380.569V150H377.005ZM395.119 150.264C393.902 150.264 392.773 150.066 391.731 149.67C390.705 149.274 389.81 148.717 389.047 147.998C388.299 147.279 387.713 146.436 387.287 145.468C386.877 144.5 386.671 143.444 386.671 142.3C386.671 141.156 386.877 140.1 387.287 139.132C387.713 138.164 388.307 137.321 389.069 136.602C389.832 135.883 390.727 135.326 391.753 134.93C392.78 134.534 393.895 134.336 395.097 134.336C396.315 134.336 397.429 134.534 398.441 134.93C399.468 135.326 400.355 135.883 401.103 136.602C401.866 137.321 402.46 138.164 402.885 139.132C403.311 140.085 403.523 141.141 403.523 142.3C403.523 143.444 403.311 144.507 402.885 145.49C402.46 146.458 401.866 147.301 401.103 148.02C400.355 148.724 399.468 149.274 398.441 149.67C397.429 150.066 396.322 150.264 395.119 150.264ZM395.097 147.228C395.787 147.228 396.417 147.111 396.989 146.876C397.576 146.641 398.089 146.304 398.529 145.864C398.969 145.424 399.307 144.903 399.541 144.302C399.791 143.701 399.915 143.033 399.915 142.3C399.915 141.567 399.791 140.899 399.541 140.298C399.307 139.697 398.969 139.176 398.529 138.736C398.104 138.296 397.598 137.959 397.011 137.724C396.425 137.489 395.787 137.372 395.097 137.372C394.408 137.372 393.77 137.489 393.183 137.724C392.611 137.959 392.105 138.296 391.665 138.736C391.225 139.176 390.881 139.697 390.631 140.298C390.397 140.899 390.279 141.567 390.279 142.3C390.279 143.019 390.397 143.686 390.631 144.302C390.881 144.903 391.218 145.424 391.643 145.864C392.083 146.304 392.597 146.641 393.183 146.876C393.77 147.111 394.408 147.228 395.097 147.228ZM406.642 150V134.6H413.308C414.687 134.6 415.875 134.827 416.872 135.282C417.869 135.722 418.639 136.36 419.182 137.196C419.725 138.032 419.996 139.029 419.996 140.188C419.996 141.332 419.725 142.322 419.182 143.158C418.639 143.994 417.869 144.639 416.872 145.094C415.875 145.534 414.687 145.754 413.308 145.754H408.622L410.206 144.148V150H406.642ZM410.206 144.544L408.622 142.85H413.11C414.21 142.85 415.031 142.615 415.574 142.146C416.117 141.677 416.388 141.024 416.388 140.188C416.388 139.337 416.117 138.677 415.574 138.208C415.031 137.739 414.21 137.504 413.11 137.504H408.622L410.206 135.81V144.544ZM434.926 150.264C433.694 150.264 432.513 150.103 431.384 149.78C430.254 149.443 429.345 149.01 428.656 148.482L429.866 145.798C430.526 146.267 431.303 146.656 432.198 146.964C433.107 147.257 434.024 147.404 434.948 147.404C435.652 147.404 436.216 147.338 436.642 147.206C437.082 147.059 437.404 146.861 437.61 146.612C437.815 146.363 437.918 146.077 437.918 145.754C437.918 145.343 437.756 145.021 437.434 144.786C437.111 144.537 436.686 144.339 436.158 144.192C435.63 144.031 435.043 143.884 434.398 143.752C433.767 143.605 433.129 143.429 432.484 143.224C431.853 143.019 431.274 142.755 430.746 142.432C430.218 142.109 429.785 141.684 429.448 141.156C429.125 140.628 428.964 139.953 428.964 139.132C428.964 138.252 429.198 137.453 429.668 136.734C430.152 136.001 430.87 135.421 431.824 134.996C432.792 134.556 434.002 134.336 435.454 134.336C436.422 134.336 437.375 134.453 438.314 134.688C439.252 134.908 440.081 135.245 440.8 135.7L439.7 138.406C438.981 137.995 438.262 137.695 437.544 137.504C436.825 137.299 436.121 137.196 435.432 137.196C434.742 137.196 434.178 137.277 433.738 137.438C433.298 137.599 432.982 137.812 432.792 138.076C432.601 138.325 432.506 138.619 432.506 138.956C432.506 139.352 432.667 139.675 432.99 139.924C433.312 140.159 433.738 140.349 434.266 140.496C434.794 140.643 435.373 140.789 436.004 140.936C436.649 141.083 437.287 141.251 437.918 141.442C438.563 141.633 439.15 141.889 439.678 142.212C440.206 142.535 440.631 142.96 440.954 143.488C441.291 144.016 441.46 144.683 441.46 145.49C441.46 146.355 441.218 147.147 440.734 147.866C440.25 148.585 439.524 149.164 438.556 149.604C437.602 150.044 436.392 150.264 434.926 150.264ZM447.841 150V143.708L448.655 145.864L441.879 134.6H445.663L450.855 143.246H448.677L453.891 134.6H457.389L450.613 145.864L451.405 143.708V150H447.841ZM464.058 150.264C462.826 150.264 461.645 150.103 460.516 149.78C459.386 149.443 458.477 149.01 457.788 148.482L458.998 145.798C459.658 146.267 460.435 146.656 461.33 146.964C462.239 147.257 463.156 147.404 464.08 147.404C464.784 147.404 465.348 147.338 465.774 147.206C466.214 147.059 466.536 146.861 466.742 146.612C466.947 146.363 467.05 146.077 467.05 145.754C467.05 145.343 466.888 145.021 466.566 144.786C466.243 144.537 465.818 144.339 465.29 144.192C464.762 144.031 464.175 143.884 463.53 143.752C462.899 143.605 462.261 143.429 461.616 143.224C460.985 143.019 460.406 142.755 459.878 142.432C459.35 142.109 458.917 141.684 458.58 141.156C458.257 140.628 458.096 139.953 458.096 139.132C458.096 138.252 458.33 137.453 458.8 136.734C459.284 136.001 460.002 135.421 460.956 134.996C461.924 134.556 463.134 134.336 464.586 134.336C465.554 134.336 466.507 134.453 467.446 134.688C468.384 134.908 469.213 135.245 469.932 135.7L468.832 138.406C468.113 137.995 467.394 137.695 466.676 137.504C465.957 137.299 465.253 137.196 464.564 137.196C463.874 137.196 463.31 137.277 462.87 137.438C462.43 137.599 462.114 137.812 461.924 138.076C461.733 138.325 461.638 138.619 461.638 138.956C461.638 139.352 461.799 139.675 462.122 139.924C462.444 140.159 462.87 140.349 463.398 140.496C463.926 140.643 464.505 140.789 465.136 140.936C465.781 141.083 466.419 141.251 467.05 141.442C467.695 141.633 468.282 141.889 468.81 142.212C469.338 142.535 469.763 142.96 470.086 143.488C470.423 144.016 470.592 144.683 470.592 145.49C470.592 146.355 470.35 147.147 469.866 147.866C469.382 148.585 468.656 149.164 467.688 149.604C466.734 150.044 465.524 150.264 464.058 150.264ZM476.442 150V137.504H471.514V134.6H484.934V137.504H480.006V150H476.442ZM490.57 140.804H497.984V143.576H490.57V140.804ZM490.834 147.14H499.216V150H487.292V134.6H498.93V137.46H490.834V147.14ZM502.491 150V134.6H505.439L511.995 145.468H510.433L516.879 134.6H519.805L519.849 150H516.505L516.483 139.726H517.099L511.951 148.372H510.345L505.087 139.726H505.835V150H502.491Z" fill="#3A9DF2"/>
<path d="M160.379 110V30.9H199.025C208.969 30.9 216.427 32.7833 221.399 36.55C226.446 40.3167 228.97 45.2887 228.97 51.466C228.97 55.6093 227.953 59.2253 225.919 62.314C223.885 65.3273 221.098 67.6627 217.557 69.32C214.016 70.9773 209.948 71.806 205.353 71.806L207.5 67.173C212.472 67.173 216.879 68.0017 220.721 69.659C224.563 71.241 227.539 73.614 229.648 76.778C231.833 79.942 232.925 83.8217 232.925 88.417C232.925 95.197 230.251 100.508 224.902 104.35C219.553 108.117 211.681 110 201.285 110H160.379ZM178.572 96.214H199.929C204.675 96.214 208.253 95.4607 210.664 93.954C213.15 92.372 214.393 89.886 214.393 86.496C214.393 83.1813 213.15 80.733 210.664 79.151C208.253 77.4937 204.675 76.665 199.929 76.665H177.216V63.331H196.765C201.21 63.331 204.6 62.5777 206.935 61.071C209.346 59.489 210.551 57.116 210.551 53.952C210.551 50.8633 209.346 48.5657 206.935 47.059C204.6 45.477 201.21 44.686 196.765 44.686H178.572V96.214ZM294.244 111.356C287.992 111.356 282.191 110.339 276.842 108.305C271.569 106.271 266.974 103.408 263.056 99.717C259.214 96.0257 256.201 91.694 254.016 86.722C251.907 81.75 250.852 76.326 250.852 70.45C250.852 64.574 251.907 59.15 254.016 54.178C256.201 49.206 259.252 44.8743 263.169 41.183C267.087 37.4917 271.682 34.629 276.955 32.595C282.229 30.561 287.954 29.544 294.131 29.544C300.384 29.544 306.109 30.561 311.307 32.595C316.581 34.629 321.138 37.4917 324.98 41.183C328.898 44.8743 331.949 49.206 334.133 54.178C336.318 59.0747 337.41 64.4987 337.41 70.45C337.41 76.326 336.318 81.7877 334.133 86.835C331.949 91.807 328.898 96.1387 324.98 99.83C321.138 103.446 316.581 106.271 311.307 108.305C306.109 110.339 300.422 111.356 294.244 111.356ZM294.131 95.762C297.672 95.762 300.911 95.1593 303.849 93.954C306.863 92.7487 309.499 91.016 311.759 88.756C314.019 86.496 315.752 83.8217 316.957 80.733C318.238 77.6443 318.878 74.2167 318.878 70.45C318.878 66.6833 318.238 63.2557 316.957 60.167C315.752 57.0783 314.019 54.404 311.759 52.144C309.575 49.884 306.976 48.1513 303.962 46.946C300.949 45.7407 297.672 45.138 294.131 45.138C290.591 45.138 287.314 45.7407 284.3 46.946C281.362 48.1513 278.763 49.884 276.503 52.144C274.243 54.404 272.473 57.0783 271.192 60.167C269.987 63.2557 269.384 66.6833 269.384 70.45C269.384 74.1413 269.987 77.569 271.192 80.733C272.473 83.8217 274.206 86.496 276.39 88.756C278.65 91.016 281.287 92.7487 284.3 93.954C287.314 95.1593 290.591 95.762 294.131 95.762ZM386.198 111.356C379.87 111.356 373.806 110.527 368.005 108.87C362.204 107.137 357.534 104.915 353.993 102.203L360.208 88.417C363.598 90.8277 367.591 92.824 372.186 94.406C376.857 95.9127 381.565 96.666 386.311 96.666C389.927 96.666 392.827 96.327 395.012 95.649C397.272 94.8957 398.929 93.8787 399.984 92.598C401.039 91.3173 401.566 89.8483 401.566 88.191C401.566 86.0817 400.737 84.4243 399.08 83.219C397.423 81.9383 395.238 80.9213 392.526 80.168C389.814 79.3393 386.801 78.586 383.486 77.908C380.247 77.1547 376.97 76.2507 373.655 75.196C370.416 74.1413 367.44 72.7853 364.728 71.128C362.016 69.4707 359.794 67.286 358.061 64.574C356.404 61.862 355.575 58.3967 355.575 54.178C355.575 49.658 356.78 45.5523 359.191 41.861C361.677 38.0943 365.368 35.1187 370.265 32.934C375.237 30.674 381.452 29.544 388.91 29.544C393.882 29.544 398.779 30.1467 403.6 31.352C408.421 32.482 412.678 34.2147 416.369 36.55L410.719 50.449C407.028 48.3397 403.336 46.7953 399.645 45.816C395.954 44.7613 392.338 44.234 388.797 44.234C385.256 44.234 382.356 44.6483 380.096 45.477C377.836 46.3057 376.216 47.398 375.237 48.754C374.258 50.0347 373.768 51.5413 373.768 53.274C373.768 55.308 374.597 56.9653 376.254 58.246C377.911 59.4513 380.096 60.4307 382.808 61.184C385.52 61.9373 388.496 62.6907 391.735 63.444C395.05 64.1973 398.327 65.0637 401.566 66.043C404.881 67.0223 407.894 68.3407 410.606 69.998C413.318 71.6553 415.503 73.84 417.16 76.552C418.893 79.264 419.759 82.6917 419.759 86.835C419.759 91.2797 418.516 95.3477 416.03 99.039C413.544 102.73 409.815 105.706 404.843 107.966C399.946 110.226 393.731 111.356 386.198 111.356ZM467.298 111.356C460.97 111.356 454.905 110.527 449.105 108.87C443.304 107.137 438.633 104.915 435.093 102.203L441.308 88.417C444.698 90.8277 448.69 92.824 453.286 94.406C457.956 95.9127 462.665 96.666 467.411 96.666C471.027 96.666 473.927 96.327 476.112 95.649C478.372 94.8957 480.029 93.8787 481.084 92.598C482.138 91.3173 482.666 89.8483 482.666 88.191C482.666 86.0817 481.837 84.4243 480.18 83.219C478.522 81.9383 476.338 80.9213 473.626 80.168C470.914 79.3393 467.9 78.586 464.586 77.908C461.346 77.1547 458.069 76.2507 454.755 75.196C451.515 74.1413 448.54 72.7853 445.828 71.128C443.116 69.4707 440.893 67.286 439.161 64.574C437.503 61.862 436.675 58.3967 436.675 54.178C436.675 49.658 437.88 45.5523 440.291 41.861C442.777 38.0943 446.468 35.1187 451.365 32.934C456.337 30.674 462.552 29.544 470.01 29.544C474.982 29.544 479.878 30.1467 484.7 31.352C489.521 32.482 493.777 34.2147 497.469 36.55L491.819 50.449C488.127 48.3397 484.436 46.7953 480.745 45.816C477.053 44.7613 473.437 44.234 469.897 44.234C466.356 44.234 463.456 44.6483 461.196 45.477C458.936 46.3057 457.316 47.398 456.337 48.754C455.357 50.0347 454.868 51.5413 454.868 53.274C454.868 55.308 455.696 56.9653 457.354 58.246C459.011 59.4513 461.196 60.4307 463.908 61.184C466.62 61.9373 469.595 62.6907 472.835 63.444C476.149 64.1973 479.426 65.0637 482.666 66.043C485.98 67.0223 488.994 68.3407 491.706 69.998C494.418 71.6553 496.602 73.84 498.26 76.552C499.992 79.264 500.859 82.6917 500.859 86.835C500.859 91.2797 499.616 95.3477 497.13 99.039C494.644 102.73 490.915 105.706 485.943 107.966C481.046 110.226 474.831 111.356 467.298 111.356Z" fill="#3A9DF2"/>
<path d="M21 156C8.44777 147.169 0.280152 139.346 0.499997 124C0.766177 105.42 36.064 92.3876 36.064 92.3876C36.064 92.3876 16.549 110.012 18.5 124C20.097 135.449 22.9941 138.422 32.5 145C39 149.498 64.5 154 82 153.5C99.5 153 128.5 151.5 128.5 151.5C128.5 151.5 92.5 162.188 82 163.5C71.5 164.812 38.9331 168.617 21 156Z" fill="#3A9DF2"/>
<path d="M95 52.5001C92.1174 69.3641 59.5 82.0001 59.5 82.0001C59.5 82.0001 135.5 81.5001 129 40.5001C122.5 -0.49984 71 2.49992 50 6.49997C29 10.5 8 30.0001 8 30.0001C8 30.0001 38.8938 18.2808 59.5 18.5001C74.1698 18.6562 96.5 25.0001 96.5 25.0001C96.5 25.0001 73.9821 26.7453 61 30.0001C42.0447 34.7525 30 45.5001 30 45.5001C30 45.5001 99.2461 27.6595 95 52.5001Z" fill="#3A9DF2"/>
<path d="M29 125.5C27.5 121.5 34 105.5 40.5 105C47 104.5 51.0834 112.982 59 115.5C75.1332 120.63 98 118 102 110C106 102 97.5 92.5 100 88C102.5 83.5 121.5 72.5 126.5 76.5C131.5 80.5 147 100 130.5 120C114 140 71.0729 150.209 46 138.5C36.1622 133.906 30.5 129.5 29 125.5Z" fill="#3A9DF2"/>
</svg>
