<svg width="398" height="123" viewBox="0 0 398 123" fill="none" xmlns="http://www.w3.org/2000/svg">
<path d="M145.47 65V2H176.25C184.17 2 190.11 3.5 194.07 6.5C198.09 9.5 200.1 13.46 200.1 18.38C200.1 21.68 199.29 24.56 197.67 27.02C196.05 29.42 193.83 31.28 191.01 32.6C188.19 33.92 184.95 34.58 181.29 34.58L183 30.89C186.96 30.89 190.47 31.55 193.53 32.87C196.59 34.13 198.96 36.02 200.64 38.54C202.38 41.06 203.25 44.15 203.25 47.81C203.25 53.21 201.12 57.44 196.86 60.5C192.6 63.5 186.33 65 178.05 65H145.47ZM159.96 54.02H176.97C180.75 54.02 183.6 53.42 185.52 52.22C187.5 50.96 188.49 48.98 188.49 46.28C188.49 43.64 187.5 41.69 185.52 40.43C183.6 39.11 180.75 38.45 176.97 38.45H158.88V27.83H174.45C177.99 27.83 180.69 27.23 182.55 26.03C184.47 24.77 185.43 22.88 185.43 20.36C185.43 17.9 184.47 16.07 182.55 14.87C180.69 13.61 177.99 12.98 174.45 12.98H159.96V54.02ZM244.888 66.08C239.908 66.08 235.288 65.27 231.028 63.65C226.828 62.03 223.168 59.75 220.048 56.81C216.988 53.87 214.588 50.42 212.848 46.46C211.168 42.5 210.328 38.18 210.328 33.5C210.328 28.82 211.168 24.5 212.848 20.54C214.588 16.58 217.018 13.13 220.138 10.19C223.258 7.25 226.918 4.97 231.118 3.34999C235.318 1.73 239.878 0.919999 244.798 0.919999C249.778 0.919999 254.338 1.73 258.478 3.34999C262.678 4.97 266.308 7.25 269.368 10.19C272.488 13.13 274.918 16.58 276.658 20.54C278.398 24.44 279.268 28.76 279.268 33.5C279.268 38.18 278.398 42.53 276.658 46.55C274.918 50.51 272.488 53.96 269.368 56.9C266.308 59.78 262.678 62.03 258.478 63.65C254.338 65.27 249.808 66.08 244.888 66.08ZM244.798 53.66C247.618 53.66 250.198 53.18 252.538 52.22C254.938 51.26 257.038 49.88 258.838 48.08C260.638 46.28 262.018 44.15 262.978 41.69C263.998 39.23 264.508 36.5 264.508 33.5C264.508 30.5 263.998 27.77 262.978 25.31C262.018 22.85 260.638 20.72 258.838 18.92C257.098 17.12 255.028 15.74 252.628 14.78C250.228 13.82 247.618 13.34 244.798 13.34C241.978 13.34 239.368 13.82 236.968 14.78C234.628 15.74 232.558 17.12 230.758 18.92C228.958 20.72 227.548 22.85 226.528 25.31C225.568 27.77 225.088 30.5 225.088 33.5C225.088 36.44 225.568 39.17 226.528 41.69C227.548 44.15 228.928 46.28 230.668 48.08C232.468 49.88 234.568 51.26 236.968 52.22C239.368 53.18 241.978 53.66 244.798 53.66ZM310.926 66.08C305.886 66.08 301.056 65.42 296.436 64.1C291.816 62.72 288.096 60.95 285.276 58.79L290.226 47.81C292.926 49.73 296.106 51.32 299.766 52.58C303.486 53.78 307.236 54.38 311.016 54.38C313.896 54.38 316.206 54.11 317.946 53.57C319.746 52.97 321.066 52.16 321.906 51.14C322.746 50.12 323.166 48.95 323.166 47.63C323.166 45.95 322.506 44.63 321.186 43.67C319.866 42.65 318.126 41.84 315.966 41.24C313.806 40.58 311.406 39.98 308.766 39.44C306.186 38.84 303.576 38.12 300.936 37.28C298.356 36.44 295.986 35.36 293.826 34.04C291.666 32.72 289.896 30.98 288.516 28.82C287.196 26.66 286.536 23.9 286.536 20.54C286.536 16.94 287.496 13.67 289.416 10.73C291.396 7.73 294.336 5.36 298.236 3.62C302.196 1.82 307.146 0.919999 313.086 0.919999C317.046 0.919999 320.946 1.4 324.786 2.36C328.626 3.26 332.016 4.64 334.956 6.5L330.456 17.57C327.516 15.89 324.576 14.66 321.636 13.88C318.696 13.04 315.816 12.62 312.996 12.62C310.176 12.62 307.866 12.95 306.066 13.61C304.266 14.27 302.976 15.14 302.196 16.22C301.416 17.24 301.026 18.44 301.026 19.82C301.026 21.44 301.686 22.76 303.006 23.78C304.326 24.74 306.066 25.52 308.226 26.12C310.386 26.72 312.756 27.32 315.336 27.92C317.976 28.52 320.586 29.21 323.166 29.99C325.806 30.77 328.206 31.82 330.366 33.14C332.526 34.46 334.266 36.2 335.586 38.36C336.966 40.52 337.656 43.25 337.656 46.55C337.656 50.09 336.666 53.33 334.686 56.27C332.706 59.21 329.736 61.58 325.776 63.38C321.876 65.18 316.926 66.08 310.926 66.08ZM368.318 66.08C363.278 66.08 358.448 65.42 353.828 64.1C349.208 62.72 345.488 60.95 342.668 58.79L347.618 47.81C350.318 49.73 353.498 51.32 357.158 52.58C360.878 53.78 364.628 54.38 368.408 54.38C371.288 54.38 373.598 54.11 375.338 53.57C377.138 52.97 378.458 52.16 379.298 51.14C380.138 50.12 380.558 48.95 380.558 47.63C380.558 45.95 379.898 44.63 378.578 43.67C377.258 42.65 375.518 41.84 373.358 41.24C371.198 40.58 368.798 39.98 366.158 39.44C363.578 38.84 360.968 38.12 358.328 37.28C355.748 36.44 353.378 35.36 351.218 34.04C349.058 32.72 347.288 30.98 345.908 28.82C344.588 26.66 343.928 23.9 343.928 20.54C343.928 16.94 344.888 13.67 346.808 10.73C348.788 7.73 351.728 5.36 355.628 3.62C359.588 1.82 364.538 0.919999 370.478 0.919999C374.438 0.919999 378.338 1.4 382.178 2.36C386.018 3.26 389.408 4.64 392.348 6.5L387.848 17.57C384.908 15.89 381.968 14.66 379.028 13.88C376.088 13.04 373.208 12.62 370.388 12.62C367.568 12.62 365.258 12.95 363.458 13.61C361.658 14.27 360.368 15.14 359.588 16.22C358.808 17.24 358.418 18.44 358.418 19.82C358.418 21.44 359.078 22.76 360.398 23.78C361.718 24.74 363.458 25.52 365.618 26.12C367.778 26.72 370.148 27.32 372.728 27.92C375.368 28.52 377.978 29.21 380.558 29.99C383.198 30.77 385.598 31.82 387.758 33.14C389.918 34.46 391.658 36.2 392.978 38.36C394.358 40.52 395.048 43.25 395.048 46.55C395.048 50.09 394.058 53.33 392.078 56.27C390.098 59.21 387.128 61.58 383.168 63.38C379.268 65.18 374.318 66.08 368.318 66.08Z" fill="#F91F1F"/>
<path d="M42.5 41.9928C30.928 28.7469 26 2.00918 26 2.00918C26 2.00918 55.9644 1.98853 76.5 2.00918C92.9203 2.02569 113.732 1.84472 119.5 3.49277C130 6.49277 136.174 15.7429 137.5 26.4928C138.672 35.9966 135 45.4928 132 49.9928C129 54.4928 111.821 69.253 96 71.9928C85.8465 73.7511 81.0142 70.035 71.5 73.9928C66.9821 75.8722 64.4323 77.0805 60.5 79.9928C53.5886 85.1114 42.5 97.9928 42.5 97.9928C42.5 97.9928 58.0416 99.9928 68 99.9928C77.9584 99.9928 88 100.493 93.5 97.9928C99 95.4928 103.269 92.6129 104.5 88.4928C106.046 83.3182 101.5 74.9928 101.5 74.9928L119.5 66.9928C119.5 66.9928 135 84.4928 123 101.493C111 118.493 86 117.993 86 117.993H0C0 117.993 16.3434 97.5923 28.5 85.9928C46.291 69.017 65.5 54.6684 76.5 51.9928C87.5 49.3172 99.0261 56.3341 108.5 50.4928C114.652 46.6997 116.845 43.5565 117 37.4928C117.119 32.853 115.169 29.6118 112.5 26.4928C106.832 19.8697 90.5 19.9928 90.5 19.9928C90.5 19.9928 73.8859 19.3148 68 26.4928C65.057 30.0818 63.3132 32.8552 63.5 37.4928C63.7376 43.3913 72 49.9928 72 49.9928L58.5 56.9928C58.5 56.9928 47.6 47.8305 42.5 41.9928Z" fill="#F91F1F"/>
<path d="M145.743 92V77.3H152.925C154.773 77.3 156.159 77.65 157.083 78.35C158.021 79.05 158.49 79.974 158.49 81.122C158.49 81.892 158.301 82.564 157.923 83.138C157.545 83.698 157.027 84.132 156.369 84.44C155.711 84.748 154.955 84.902 154.101 84.902L154.5 84.041C155.424 84.041 156.243 84.195 156.957 84.503C157.671 84.797 158.224 85.238 158.616 85.826C159.022 86.414 159.225 87.135 159.225 87.989C159.225 89.249 158.728 90.236 157.734 90.95C156.74 91.65 155.277 92 153.345 92H145.743ZM149.124 89.438H153.093C153.975 89.438 154.64 89.298 155.088 89.018C155.55 88.724 155.781 88.262 155.781 87.632C155.781 87.016 155.55 86.561 155.088 86.267C154.64 85.959 153.975 85.805 153.093 85.805H148.872V83.327H152.505C153.331 83.327 153.961 83.187 154.395 82.907C154.843 82.613 155.067 82.172 155.067 81.584C155.067 81.01 154.843 80.583 154.395 80.303C153.961 80.009 153.331 79.862 152.505 79.862H149.124V89.438ZM168.752 92.252C166.666 92.252 165.035 91.671 163.859 90.509C162.683 89.347 162.095 87.688 162.095 85.532V77.3H165.497V85.406C165.497 86.806 165.784 87.814 166.358 88.43C166.932 89.046 167.737 89.354 168.773 89.354C169.809 89.354 170.614 89.046 171.188 88.43C171.762 87.814 172.049 86.806 172.049 85.406V77.3H175.409V85.532C175.409 87.688 174.821 89.347 173.645 90.509C172.469 91.671 170.838 92.252 168.752 92.252ZM184.02 92.252C182.844 92.252 181.717 92.098 180.639 91.79C179.561 91.468 178.693 91.055 178.035 90.551L179.19 87.989C179.82 88.437 180.562 88.808 181.416 89.102C182.284 89.382 183.159 89.522 184.041 89.522C184.713 89.522 185.252 89.459 185.658 89.333C186.078 89.193 186.386 89.004 186.582 88.766C186.778 88.528 186.876 88.255 186.876 87.947C186.876 87.555 186.722 87.247 186.414 87.023C186.106 86.785 185.7 86.596 185.196 86.456C184.692 86.302 184.132 86.162 183.516 86.036C182.914 85.896 182.305 85.728 181.689 85.532C181.087 85.336 180.534 85.084 180.03 84.776C179.526 84.468 179.113 84.062 178.791 83.558C178.483 83.054 178.329 82.41 178.329 81.626C178.329 80.786 178.553 80.023 179.001 79.337C179.463 78.637 180.149 78.084 181.059 77.678C181.983 77.258 183.138 77.048 184.524 77.048C185.448 77.048 186.358 77.16 187.254 77.384C188.15 77.594 188.941 77.916 189.627 78.35L188.577 80.933C187.891 80.541 187.205 80.254 186.519 80.072C185.833 79.876 185.161 79.778 184.503 79.778C183.845 79.778 183.306 79.855 182.886 80.009C182.466 80.163 182.165 80.366 181.983 80.618C181.801 80.856 181.71 81.136 181.71 81.458C181.71 81.836 181.864 82.144 182.172 82.382C182.48 82.606 182.886 82.788 183.39 82.928C183.894 83.068 184.447 83.208 185.049 83.348C185.665 83.488 186.274 83.649 186.876 83.831C187.492 84.013 188.052 84.258 188.556 84.566C189.06 84.874 189.466 85.28 189.774 85.784C190.096 86.288 190.257 86.925 190.257 87.695C190.257 88.521 190.026 89.277 189.564 89.963C189.102 90.649 188.409 91.202 187.485 91.622C186.575 92.042 185.42 92.252 184.02 92.252ZM197.832 92.252C196.656 92.252 195.529 92.098 194.451 91.79C193.373 91.468 192.505 91.055 191.847 90.551L193.002 87.989C193.632 88.437 194.374 88.808 195.228 89.102C196.096 89.382 196.971 89.522 197.853 89.522C198.525 89.522 199.064 89.459 199.47 89.333C199.89 89.193 200.198 89.004 200.394 88.766C200.59 88.528 200.688 88.255 200.688 87.947C200.688 87.555 200.534 87.247 200.226 87.023C199.918 86.785 199.512 86.596 199.008 86.456C198.504 86.302 197.944 86.162 197.328 86.036C196.726 85.896 196.117 85.728 195.501 85.532C194.899 85.336 194.346 85.084 193.842 84.776C193.338 84.468 192.925 84.062 192.603 83.558C192.295 83.054 192.141 82.41 192.141 81.626C192.141 80.786 192.365 80.023 192.813 79.337C193.275 78.637 193.961 78.084 194.871 77.678C195.795 77.258 196.95 77.048 198.336 77.048C199.26 77.048 200.17 77.16 201.066 77.384C201.962 77.594 202.753 77.916 203.439 78.35L202.389 80.933C201.703 80.541 201.017 80.254 200.331 80.072C199.645 79.876 198.973 79.778 198.315 79.778C197.657 79.778 197.118 79.855 196.698 80.009C196.278 80.163 195.977 80.366 195.795 80.618C195.613 80.856 195.522 81.136 195.522 81.458C195.522 81.836 195.676 82.144 195.984 82.382C196.292 82.606 196.698 82.788 197.202 82.928C197.706 83.068 198.259 83.208 198.861 83.348C199.477 83.488 200.086 83.649 200.688 83.831C201.304 84.013 201.864 84.258 202.368 84.566C202.872 84.874 203.278 85.28 203.586 85.784C203.908 86.288 204.069 86.925 204.069 87.695C204.069 88.521 203.838 89.277 203.376 89.963C202.914 90.649 202.221 91.202 201.297 91.622C200.387 92.042 199.232 92.252 197.832 92.252ZM206.814 92V77.3H210.216V92H206.814ZM214.124 92V77.3H216.938L225.611 87.884H224.246V77.3H227.606V92H224.813L216.119 81.416H217.484V92H214.124ZM234.633 83.222H241.71V85.868H234.633V83.222ZM234.885 89.27H242.886V92H231.504V77.3H242.613V80.03H234.885V89.27ZM250.843 92.252C249.667 92.252 248.54 92.098 247.462 91.79C246.384 91.468 245.516 91.055 244.858 90.551L246.013 87.989C246.643 88.437 247.385 88.808 248.239 89.102C249.107 89.382 249.982 89.522 250.864 89.522C251.536 89.522 252.075 89.459 252.481 89.333C252.901 89.193 253.209 89.004 253.405 88.766C253.601 88.528 253.699 88.255 253.699 87.947C253.699 87.555 253.545 87.247 253.237 87.023C252.929 86.785 252.523 86.596 252.019 86.456C251.515 86.302 250.955 86.162 250.339 86.036C249.737 85.896 249.128 85.728 248.512 85.532C247.91 85.336 247.357 85.084 246.853 84.776C246.349 84.468 245.936 84.062 245.614 83.558C245.306 83.054 245.152 82.41 245.152 81.626C245.152 80.786 245.376 80.023 245.824 79.337C246.286 78.637 246.972 78.084 247.882 77.678C248.806 77.258 249.961 77.048 251.347 77.048C252.271 77.048 253.181 77.16 254.077 77.384C254.973 77.594 255.764 77.916 256.45 78.35L255.4 80.933C254.714 80.541 254.028 80.254 253.342 80.072C252.656 79.876 251.984 79.778 251.326 79.778C250.668 79.778 250.129 79.855 249.709 80.009C249.289 80.163 248.988 80.366 248.806 80.618C248.624 80.856 248.533 81.136 248.533 81.458C248.533 81.836 248.687 82.144 248.995 82.382C249.303 82.606 249.709 82.788 250.213 82.928C250.717 83.068 251.27 83.208 251.872 83.348C252.488 83.488 253.097 83.649 253.699 83.831C254.315 84.013 254.875 84.258 255.379 84.566C255.883 84.874 256.289 85.28 256.597 85.784C256.919 86.288 257.08 86.925 257.08 87.695C257.08 88.521 256.849 89.277 256.387 89.963C255.925 90.649 255.232 91.202 254.308 91.622C253.398 92.042 252.243 92.252 250.843 92.252ZM264.655 92.252C263.479 92.252 262.352 92.098 261.274 91.79C260.196 91.468 259.328 91.055 258.67 90.551L259.825 87.989C260.455 88.437 261.197 88.808 262.051 89.102C262.919 89.382 263.794 89.522 264.676 89.522C265.348 89.522 265.887 89.459 266.293 89.333C266.713 89.193 267.021 89.004 267.217 88.766C267.413 88.528 267.511 88.255 267.511 87.947C267.511 87.555 267.357 87.247 267.049 87.023C266.741 86.785 266.335 86.596 265.831 86.456C265.327 86.302 264.767 86.162 264.151 86.036C263.549 85.896 262.94 85.728 262.324 85.532C261.722 85.336 261.169 85.084 260.665 84.776C260.161 84.468 259.748 84.062 259.426 83.558C259.118 83.054 258.964 82.41 258.964 81.626C258.964 80.786 259.188 80.023 259.636 79.337C260.098 78.637 260.784 78.084 261.694 77.678C262.618 77.258 263.773 77.048 265.159 77.048C266.083 77.048 266.993 77.16 267.889 77.384C268.785 77.594 269.576 77.916 270.262 78.35L269.212 80.933C268.526 80.541 267.84 80.254 267.154 80.072C266.468 79.876 265.796 79.778 265.138 79.778C264.48 79.778 263.941 79.855 263.521 80.009C263.101 80.163 262.8 80.366 262.618 80.618C262.436 80.856 262.345 81.136 262.345 81.458C262.345 81.836 262.499 82.144 262.807 82.382C263.115 82.606 263.521 82.788 264.025 82.928C264.529 83.068 265.082 83.208 265.684 83.348C266.3 83.488 266.909 83.649 267.511 83.831C268.127 84.013 268.687 84.258 269.191 84.566C269.695 84.874 270.101 85.28 270.409 85.784C270.731 86.288 270.892 86.925 270.892 87.695C270.892 88.521 270.661 89.277 270.199 89.963C269.737 90.649 269.044 91.202 268.12 91.622C267.21 92.042 266.055 92.252 264.655 92.252ZM287.144 92.252C285.982 92.252 284.904 92.063 283.91 91.685C282.93 91.307 282.076 90.775 281.348 90.089C280.634 89.403 280.074 88.598 279.668 87.674C279.276 86.75 279.08 85.742 279.08 84.65C279.08 83.558 279.276 82.55 279.668 81.626C280.074 80.702 280.641 79.897 281.369 79.211C282.097 78.525 282.951 77.993 283.931 77.615C284.911 77.237 285.975 77.048 287.123 77.048C288.285 77.048 289.349 77.237 290.315 77.615C291.295 77.993 292.142 78.525 292.856 79.211C293.584 79.897 294.151 80.702 294.557 81.626C294.963 82.536 295.166 83.544 295.166 84.65C295.166 85.742 294.963 86.757 294.557 87.695C294.151 88.619 293.584 89.424 292.856 90.11C292.142 90.782 291.295 91.307 290.315 91.685C289.349 92.063 288.292 92.252 287.144 92.252ZM287.123 89.354C287.781 89.354 288.383 89.242 288.929 89.018C289.489 88.794 289.979 88.472 290.399 88.052C290.819 87.632 291.141 87.135 291.365 86.561C291.603 85.987 291.722 85.35 291.722 84.65C291.722 83.95 291.603 83.313 291.365 82.739C291.141 82.165 290.819 81.668 290.399 81.248C289.993 80.828 289.51 80.506 288.95 80.282C288.39 80.058 287.781 79.946 287.123 79.946C286.465 79.946 285.856 80.058 285.296 80.282C284.75 80.506 284.267 80.828 283.847 81.248C283.427 81.668 283.098 82.165 282.86 82.739C282.636 83.313 282.524 83.95 282.524 84.65C282.524 85.336 282.636 85.973 282.86 86.561C283.098 87.135 283.42 87.632 283.826 88.052C284.246 88.472 284.736 88.794 285.296 89.018C285.856 89.242 286.465 89.354 287.123 89.354ZM298.142 92V77.3H300.956L309.629 87.884H308.264V77.3H311.624V92H308.831L300.137 81.416H301.502V92H298.142ZM318.651 83.222H325.728V85.868H318.651V83.222ZM318.903 89.27H326.904V92H315.522V77.3H326.631V80.03H318.903V89.27ZM341.228 92.252C340.052 92.252 338.925 92.098 337.847 91.79C336.769 91.468 335.901 91.055 335.243 90.551L336.398 87.989C337.028 88.437 337.77 88.808 338.624 89.102C339.492 89.382 340.367 89.522 341.249 89.522C341.921 89.522 342.46 89.459 342.866 89.333C343.286 89.193 343.594 89.004 343.79 88.766C343.986 88.528 344.084 88.255 344.084 87.947C344.084 87.555 343.93 87.247 343.622 87.023C343.314 86.785 342.908 86.596 342.404 86.456C341.9 86.302 341.34 86.162 340.724 86.036C340.122 85.896 339.513 85.728 338.897 85.532C338.295 85.336 337.742 85.084 337.238 84.776C336.734 84.468 336.321 84.062 335.999 83.558C335.691 83.054 335.537 82.41 335.537 81.626C335.537 80.786 335.761 80.023 336.209 79.337C336.671 78.637 337.357 78.084 338.267 77.678C339.191 77.258 340.346 77.048 341.732 77.048C342.656 77.048 343.566 77.16 344.462 77.384C345.358 77.594 346.149 77.916 346.835 78.35L345.785 80.933C345.099 80.541 344.413 80.254 343.727 80.072C343.041 79.876 342.369 79.778 341.711 79.778C341.053 79.778 340.514 79.855 340.094 80.009C339.674 80.163 339.373 80.366 339.191 80.618C339.009 80.856 338.918 81.136 338.918 81.458C338.918 81.836 339.072 82.144 339.38 82.382C339.688 82.606 340.094 82.788 340.598 82.928C341.102 83.068 341.655 83.208 342.257 83.348C342.873 83.488 343.482 83.649 344.084 83.831C344.7 84.013 345.26 84.258 345.764 84.566C346.268 84.874 346.674 85.28 346.982 85.784C347.304 86.288 347.465 86.925 347.465 87.695C347.465 88.521 347.234 89.277 346.772 89.963C346.31 90.649 345.617 91.202 344.693 91.622C343.783 92.042 342.628 92.252 341.228 92.252ZM353.05 92V80.072H348.346V77.3H361.156V80.072H356.452V92H353.05ZM370.341 92.252C369.179 92.252 368.101 92.063 367.107 91.685C366.127 91.307 365.273 90.775 364.545 90.089C363.831 89.403 363.271 88.598 362.865 87.674C362.473 86.75 362.277 85.742 362.277 84.65C362.277 83.558 362.473 82.55 362.865 81.626C363.271 80.702 363.838 79.897 364.566 79.211C365.294 78.525 366.148 77.993 367.128 77.615C368.108 77.237 369.172 77.048 370.32 77.048C371.482 77.048 372.546 77.237 373.512 77.615C374.492 77.993 375.339 78.525 376.053 79.211C376.781 79.897 377.348 80.702 377.754 81.626C378.16 82.536 378.363 83.544 378.363 84.65C378.363 85.742 378.16 86.757 377.754 87.695C377.348 88.619 376.781 89.424 376.053 90.11C375.339 90.782 374.492 91.307 373.512 91.685C372.546 92.063 371.489 92.252 370.341 92.252ZM370.32 89.354C370.978 89.354 371.58 89.242 372.126 89.018C372.686 88.794 373.176 88.472 373.596 88.052C374.016 87.632 374.338 87.135 374.562 86.561C374.8 85.987 374.919 85.35 374.919 84.65C374.919 83.95 374.8 83.313 374.562 82.739C374.338 82.165 374.016 81.668 373.596 81.248C373.19 80.828 372.707 80.506 372.147 80.282C371.587 80.058 370.978 79.946 370.32 79.946C369.662 79.946 369.053 80.058 368.493 80.282C367.947 80.506 367.464 80.828 367.044 81.248C366.624 81.668 366.295 82.165 366.057 82.739C365.833 83.313 365.721 83.95 365.721 84.65C365.721 85.336 365.833 85.973 366.057 86.561C366.295 87.135 366.617 87.632 367.023 88.052C367.443 88.472 367.933 88.794 368.493 89.018C369.053 89.242 369.662 89.354 370.32 89.354ZM381.34 92V77.3H387.703C389.019 77.3 390.153 77.517 391.105 77.951C392.057 78.371 392.792 78.98 393.31 79.778C393.828 80.576 394.087 81.528 394.087 82.634C394.087 83.726 393.828 84.671 393.31 85.469C392.792 86.267 392.057 86.883 391.105 87.317C390.153 87.737 389.019 87.947 387.703 87.947H383.23L384.742 86.414V92H381.34ZM384.742 86.792L383.23 85.175H387.514C388.564 85.175 389.348 84.951 389.866 84.503C390.384 84.055 390.643 83.432 390.643 82.634C390.643 81.822 390.384 81.192 389.866 80.744C389.348 80.296 388.564 80.072 387.514 80.072H383.23L384.742 78.455V86.792ZM150.573 118.252C149.397 118.252 148.27 118.098 147.192 117.79C146.114 117.468 145.246 117.055 144.588 116.551L145.743 113.989C146.373 114.437 147.115 114.808 147.969 115.102C148.837 115.382 149.712 115.522 150.594 115.522C151.266 115.522 151.805 115.459 152.211 115.333C152.631 115.193 152.939 115.004 153.135 114.766C153.331 114.528 153.429 114.255 153.429 113.947C153.429 113.555 153.275 113.247 152.967 113.023C152.659 112.785 152.253 112.596 151.749 112.456C151.245 112.302 150.685 112.162 150.069 112.036C149.467 111.896 148.858 111.728 148.242 111.532C147.64 111.336 147.087 111.084 146.583 110.776C146.079 110.468 145.666 110.062 145.344 109.558C145.036 109.054 144.882 108.41 144.882 107.626C144.882 106.786 145.106 106.023 145.554 105.337C146.016 104.637 146.702 104.084 147.612 103.678C148.536 103.258 149.691 103.048 151.077 103.048C152.001 103.048 152.911 103.16 153.807 103.384C154.703 103.594 155.494 103.916 156.18 104.35L155.13 106.933C154.444 106.541 153.758 106.254 153.072 106.072C152.386 105.876 151.714 105.778 151.056 105.778C150.398 105.778 149.859 105.855 149.439 106.009C149.019 106.163 148.718 106.366 148.536 106.618C148.354 106.856 148.263 107.136 148.263 107.458C148.263 107.836 148.417 108.144 148.725 108.382C149.033 108.606 149.439 108.788 149.943 108.928C150.447 109.068 151 109.208 151.602 109.348C152.218 109.488 152.827 109.649 153.429 109.831C154.045 110.013 154.605 110.258 155.109 110.566C155.613 110.874 156.019 111.28 156.327 111.784C156.649 112.288 156.81 112.925 156.81 113.695C156.81 114.521 156.579 115.277 156.117 115.963C155.655 116.649 154.962 117.202 154.038 117.622C153.128 118.042 151.973 118.252 150.573 118.252ZM162.901 118V111.994L163.678 114.052L157.21 103.3H160.822L165.778 111.553H163.699L168.676 103.3H172.015L165.547 114.052L166.303 111.994V118H162.901ZM178.381 118.252C177.205 118.252 176.078 118.098 175 117.79C173.922 117.468 173.054 117.055 172.396 116.551L173.551 113.989C174.181 114.437 174.923 114.808 175.777 115.102C176.645 115.382 177.52 115.522 178.402 115.522C179.074 115.522 179.613 115.459 180.019 115.333C180.439 115.193 180.747 115.004 180.943 114.766C181.139 114.528 181.237 114.255 181.237 113.947C181.237 113.555 181.083 113.247 180.775 113.023C180.467 112.785 180.061 112.596 179.557 112.456C179.053 112.302 178.493 112.162 177.877 112.036C177.275 111.896 176.666 111.728 176.05 111.532C175.448 111.336 174.895 111.084 174.391 110.776C173.887 110.468 173.474 110.062 173.152 109.558C172.844 109.054 172.69 108.41 172.69 107.626C172.69 106.786 172.914 106.023 173.362 105.337C173.824 104.637 174.51 104.084 175.42 103.678C176.344 103.258 177.499 103.048 178.885 103.048C179.809 103.048 180.719 103.16 181.615 103.384C182.511 103.594 183.302 103.916 183.988 104.35L182.938 106.933C182.252 106.541 181.566 106.254 180.88 106.072C180.194 105.876 179.522 105.778 178.864 105.778C178.206 105.778 177.667 105.855 177.247 106.009C176.827 106.163 176.526 106.366 176.344 106.618C176.162 106.856 176.071 107.136 176.071 107.458C176.071 107.836 176.225 108.144 176.533 108.382C176.841 108.606 177.247 108.788 177.751 108.928C178.255 109.068 178.808 109.208 179.41 109.348C180.026 109.488 180.635 109.649 181.237 109.831C181.853 110.013 182.413 110.258 182.917 110.566C183.421 110.874 183.827 111.28 184.135 111.784C184.457 112.288 184.618 112.925 184.618 113.695C184.618 114.521 184.387 115.277 183.925 115.963C183.463 116.649 182.77 117.202 181.846 117.622C180.936 118.042 179.781 118.252 178.381 118.252ZM190.202 118V106.072H185.498V103.3H198.308V106.072H193.604V118H190.202ZM203.688 109.222H210.765V111.868H203.688V109.222ZM203.94 115.27H211.941V118H200.559V103.3H211.668V106.03H203.94V115.27ZM215.068 118V103.3H217.882L224.14 113.674H222.649L228.802 103.3H231.595L231.637 118H228.445L228.424 108.193H229.012L224.098 116.446H222.565L217.546 108.193H218.26V118H215.068Z" fill="#F91F1F"/>
</svg>
