<svg width="138" height="162" viewBox="0 0 138 162" fill="none" xmlns="http://www.w3.org/2000/svg">
<path d="M21 152C8.44777 143.169 0.280152 135.346 0.499997 120C0.766177 101.42 36.064 88.3876 36.064 88.3876C36.064 88.3876 16.549 106.012 18.5 120C20.097 131.449 22.9941 134.422 32.5 141C39 145.498 64.5 150 82 149.5C99.5 149 128.5 147.5 128.5 147.5C128.5 147.5 92.5 158.188 82 159.5C71.5 160.812 38.9331 164.617 21 152Z" fill="#3A9DF2"/>
<path d="M95 48.5001C92.1174 65.3641 59.5 78.0001 59.5 78.0001C59.5 78.0001 135.5 77.5001 129 36.5001C122.5 -4.49984 71 -1.50008 50 2.49997C29 6.50003 8 26.0001 8 26.0001C8 26.0001 38.8938 14.2808 59.5 14.5001C74.1698 14.6562 96.5 21.0001 96.5 21.0001C96.5 21.0001 73.9821 22.7453 61 26.0001C42.0447 30.7525 30 41.5001 30 41.5001C30 41.5001 99.2461 23.6595 95 48.5001Z" fill="#3A9DF2"/>
<path d="M29 121.5C27.5 117.5 34 101.5 40.5 101C47 100.5 51.0834 108.982 59 111.5C75.1332 116.63 98 114 102 106C106 98 97.5 88.5 100 84C102.5 79.5 121.5 68.5 126.5 72.5C131.5 76.5 147 96 130.5 116C114 136 71.0729 146.209 46 134.5C36.1622 129.906 30.5 125.5 29 121.5Z" fill="#3A9DF2"/>
</svg>
