<svg width="139" height="163" viewBox="0 0 139 163" fill="none" xmlns="http://www.w3.org/2000/svg">
<path d="M21 153C8.44777 144.169 0.280152 136.346 0.499997 121C0.766177 102.42 36.064 89.3876 36.064 89.3876C36.064 89.3876 16.549 107.012 18.5 121C20.097 132.449 22.9941 135.422 32.5 142C39 146.498 64.5 151 82 150.5C99.5 150 128.5 148.5 128.5 148.5C128.5 148.5 92.5 159.188 82 160.5C71.5 161.812 38.9331 165.617 21 153Z" fill="white"/>
<path d="M36.5 89L36.064 89.3876M36.064 89.3876C36.064 89.3876 0.766177 102.42 0.499997 121C0.280152 136.346 8.44777 144.169 21 153C38.9331 165.617 71.5 161.812 82 160.5C92.5 159.188 128.5 148.5 128.5 148.5C128.5 148.5 99.5 150 82 150.5C64.5 151 39 146.498 32.5 142C22.9941 135.422 20.097 132.449 18.5 121C16.549 107.012 36.064 89.3876 36.064 89.3876Z" stroke="white"/>
<path d="M95 49.5002C92.1174 66.3641 59.5 79.0001 59.5 79.0001C59.5 79.0001 135.5 78.5001 129 37.5002C122.5 -3.49981 71 -0.500054 50 3.5C29 7.50006 8 27.0002 8 27.0002C8 27.0002 38.8938 15.2808 59.5 15.5001C74.1698 15.6562 96.5 22.0001 96.5 22.0001C96.5 22.0001 73.9821 23.7453 61 27.0001C42.0447 31.7526 30 42.5001 30 42.5001C30 42.5001 99.2461 24.6595 95 49.5002Z" fill="white" stroke="white"/>
<path d="M29 122.5C27.5 118.5 34 102.5 40.5 102C47 101.5 51.0834 109.982 59 112.5C75.1332 117.63 98 115 102 107C106 99 97.5 89.5 100 85C102.5 80.5 121.5 69.5 126.5 73.5C131.5 77.5 147 97 130.5 117C114 137 71.0729 147.209 46 135.5C36.1622 130.906 30.5 126.5 29 122.5Z" fill="white" stroke="white"/>
</svg>
